<?xml version="1.0" standalone="yes"?>

<svg version="1.1" viewBox="0.0 0.0 960.0 720.0" fill="none" stroke="none" stroke-linecap="square" stroke-miterlimit="10" xmlns="http://www.w3.org/2000/svg" xmlns:xlink="http://www.w3.org/1999/xlink"><clipPath id="p.0"><path d="m0 0l960.0 0l0 720.0l-960.0 0l0 -720.0z" clip-rule="nonzero"></path></clipPath><g clip-path="url(#p.0)"><path fill="#000000" fill-opacity="0.0" d="m0 0l960.0 0l0 720.0l-960.0 0z" fill-rule="evenodd"></path><path fill="#d9d9d9" d="m81.58262 216.66405l0 0c0 -13.924545 12.000183 -25.2126 26.803154 -25.2126l0 0c7.108635 0 13.926125 2.656311 18.95269 7.384598c5.026558 4.7282715 7.850456 11.141205 7.850456 17.828003l0 0c0 13.92453 -12.000175 25.2126 -26.803146 25.2126l0 0c-14.802971 0 -26.803154 -11.288071 -26.803154 -25.2126z" fill-rule="evenodd"></path><path stroke="#000000" stroke-width="1.0" stroke-linejoin="round" stroke-linecap="butt" d="m81.58262 216.66405l0 0c0 -13.924545 12.000183 -25.2126 26.803154 -25.2126l0 0c7.108635 0 13.926125 2.656311 18.95269 7.384598c5.026558 4.7282715 7.850456 11.141205 7.850456 17.828003l0 0c0 13.92453 -12.000175 25.2126 -26.803146 25.2126l0 0c-14.802971 0 -26.803154 -11.288071 -26.803154 -25.2126z" fill-rule="evenodd"></path><path fill="#000000" d="m99.46433 221.46404l0 -9.3125l6.71875 0l0 1.109375l-5.484375 0l0 2.84375l5.140625 0l0 1.09375l-5.140625 0l0 3.171875l5.703125 0l0 1.09375l-6.9375 0zm12.702255 0l-1.140625 0l0 -7.28125q-0.421875 0.390625 -1.09375 0.796875q-0.65625 0.390625 -1.1875 0.578125l0 -1.109375q0.953125 -0.4375 1.671875 -1.078125q0.71875 -0.640625 1.015625 -1.25l0.734375 0l0 9.34375z" fill-rule="nonzero"></path><path fill="#d9d9d9" d="m398.15485 475.96194l0 0c0 -12.550354 14.862732 -22.724426 33.19687 -22.724426l0 0c18.334106 0 33.19684 10.174072 33.19684 22.724426l0 0c0 12.550354 -14.862732 22.724396 -33.19684 22.724396l0 0c-18.334137 0 -33.19687 -10.174042 -33.19687 -22.724396z" fill-rule="evenodd"></path><path stroke="#000000" stroke-width="1.0" stroke-linejoin="round" stroke-linecap="butt" d="m398.15485 475.96194l0 0c0 -12.550354 14.862732 -22.724426 33.19687 -22.724426l0 0c18.334106 0 33.19684 10.174072 33.19684 22.724426l0 0c0 12.550354 -14.862732 22.724396 -33.19684 22.724396l0 0c-18.334137 0 -33.19687 -10.174042 -33.19687 -22.724396z" fill-rule="evenodd"></path><path fill="#000000" d="m421.56534 480.76193l0 -9.3125l1.265625 0l4.890625 7.3125l0 -7.3125l1.1875 0l0 9.3125l-1.265625 0l-4.890625 -7.3125l0 7.3125l-1.1875 0zm10.937653 -5.046875q-0.703125 -0.265625 -1.046875 -0.734375q-0.34375 -0.484375 -0.34375 -1.15625q0 -1.015625 0.71875 -1.703125q0.734375 -0.703125 1.953125 -0.703125q1.21875 0 1.953125 0.71875q0.75 0.703125 0.75 1.71875q0 0.640625 -0.34375 1.125q-0.34375 0.46875 -1.03125 0.734375q0.859375 0.28125 1.296875 0.90625q0.453125 0.625 0.453125 1.484375q0 1.1875 -0.84375 2.0q-0.84375 0.8125 -2.21875 0.8125q-1.375 0 -2.21875 -0.8125q-0.84375 -0.8125 -0.84375 -2.03125q0 -0.90625 0.453125 -1.515625q0.46875 -0.625 1.3125 -0.84375zm-0.234375 -1.9375q0 0.65625 0.421875 1.078125q0.4375 0.421875 1.109375 0.421875q0.671875 0 1.09375 -0.40625q0.421875 -0.421875 0.421875 -1.03125q0 -0.625 -0.4375 -1.046875q-0.4375 -0.4375 -1.078125 -0.4375q-0.65625 0 -1.09375 0.421875q-0.4375 0.421875 -0.4375 1.0zm-0.359375 4.296875q0 0.484375 0.234375 0.953125q0.234375 0.453125 0.6875 0.703125q0.453125 0.25 0.984375 0.25q0.8125 0 1.34375 -0.515625q0.53125 -0.53125 0.53125 -1.34375q0 -0.828125 -0.546875 -1.359375q-0.546875 -0.546875 -1.375 -0.546875q-0.796875 0 -1.328125 0.53125q-0.53125 0.53125 -0.53125 1.328125z" fill-rule="nonzero"></path><path fill="#d9d9d9" d="m398.15485 414.2034l0 0c0 -12.5503235 14.862732 -22.724396 33.19687 -22.724396l0 0c18.334106 0 33.19684 10.174072 33.19684 22.724396l0 0c0 12.550354 -14.862732 22.724426 -33.19684 22.724426l0 0c-18.334137 0 -33.19687 -10.174072 -33.19687 -22.724426z" fill-rule="evenodd"></path><path stroke="#000000" stroke-width="1.0" stroke-linejoin="round" stroke-linecap="butt" d="m398.15485 414.2034l0 0c0 -12.5503235 14.862732 -22.724396 33.19687 -22.724396l0 0c18.334106 0 33.19684 10.174072 33.19684 22.724396l0 0c0 12.550354 -14.862732 22.724426 -33.19684 22.724426l0 0c-18.334137 0 -33.19687 -10.174072 -33.19687 -22.724426z" fill-rule="evenodd"></path><path fill="#000000" d="m421.56534 419.00342l0 -9.3125l1.265625 0l4.890625 7.3125l0 -7.3125l1.1875 0l0 9.3125l-1.265625 0l-4.890625 -7.3125l0 7.3125l-1.1875 0zm9.250153 -8.09375l0 -1.09375l6.03125 0l0 0.890625q-0.890625 0.953125 -1.765625 2.515625q-0.875 1.5625 -1.34375 3.21875q-0.34375 1.171875 -0.4375 2.5625l-1.171875 0q0.015625 -1.09375 0.421875 -2.640625q0.421875 -1.5625 1.1875 -3.0q0.765625 -1.453125 1.640625 -2.453125l-4.5625 0z" fill-rule="nonzero"></path><path fill="#d9d9d9" d="m398.15485 355.23227l0 0c0 -12.5503235 14.862732 -22.724396 33.19687 -22.724396l0 0c18.334106 0 33.19684 10.174072 33.19684 22.724396l0 0c0 12.550354 -14.862732 22.724426 -33.19684 22.724426l0 0c-18.334137 0 -33.19687 -10.174072 -33.19687 -22.724426z" fill-rule="evenodd"></path><path stroke="#000000" stroke-width="1.0" stroke-linejoin="round" stroke-linecap="butt" d="m398.15485 355.23227l0 0c0 -12.5503235 14.862732 -22.724396 33.19687 -22.724396l0 0c18.334106 0 33.19684 10.174072 33.19684 22.724396l0 0c0 12.550354 -14.862732 22.724426 -33.19684 22.724426l0 0c-18.334137 0 -33.19687 -10.174072 -33.19687 -22.724426z" fill-rule="evenodd"></path><path fill="#000000" d="m421.56534 360.0323l0 -9.3125l1.265625 0l4.890625 7.3125l0 -7.3125l1.1875 0l0 9.3125l-1.265625 0l-4.890625 -7.3125l0 7.3125l-1.1875 0zm15.109528 -7.03125l-1.140625 0.09375q-0.140625 -0.671875 -0.421875 -0.984375q-0.46875 -0.484375 -1.140625 -0.484375q-0.546875 0 -0.96875 0.3125q-0.53125 0.390625 -0.84375 1.140625q-0.3125 0.75 -0.328125 2.15625q0.40625 -0.625 1.0 -0.921875q0.609375 -0.3125 1.265625 -0.3125q1.140625 0 1.9375 0.84375q0.8125 0.828125 0.8125 2.171875q0 0.875 -0.390625 1.625q-0.375 0.75 -1.03125 1.15625q-0.65625 0.390625 -1.5 0.390625q-1.421875 0 -2.328125 -1.046875q-0.90625 -1.046875 -0.90625 -3.46875q0 -2.6875 1.0 -3.921875q0.875 -1.0625 2.34375 -1.0625q1.09375 0 1.796875 0.625q0.703125 0.609375 0.84375 1.6875zm-4.671875 4.015625q0 0.59375 0.25 1.140625q0.25 0.53125 0.703125 0.8125q0.453125 0.28125 0.953125 0.28125q0.71875 0 1.234375 -0.578125q0.53125 -0.59375 0.53125 -1.59375q0 -0.96875 -0.515625 -1.515625q-0.515625 -0.5625 -1.296875 -0.5625q-0.78125 0 -1.328125 0.5625q-0.53125 0.546875 -0.53125 1.453125z" fill-rule="nonzero"></path><path fill="#d9d9d9" d="m398.15485 295.56824l0 0c0 -12.550354 14.862732 -22.724396 33.19687 -22.724396l0 0c18.334106 0 33.19684 10.174042 33.19684 22.724396l0 0c0 12.550354 -14.862732 22.724426 -33.19684 22.724426l0 0c-18.334137 0 -33.19687 -10.174072 -33.19687 -22.724426z" fill-rule="evenodd"></path><path stroke="#000000" stroke-width="1.0" stroke-linejoin="round" stroke-linecap="butt" d="m398.15485 295.56824l0 0c0 -12.550354 14.862732 -22.724396 33.19687 -22.724396l0 0c18.334106 0 33.19684 10.174042 33.19684 22.724396l0 0c0 12.550354 -14.862732 22.724426 -33.19684 22.724426l0 0c-18.334137 0 -33.19687 -10.174072 -33.19687 -22.724426z" fill-rule="evenodd"></path><path fill="#000000" d="m421.56534 300.36826l0 -9.3125l1.265625 0l4.890625 7.3125l0 -7.3125l1.1875 0l0 9.3125l-1.265625 0l-4.890625 -7.3125l0 7.3125l-1.1875 0zm9.187653 -2.4375l1.1875 -0.109375q0.140625 0.890625 0.625 1.328125q0.484375 0.4375 1.171875 0.4375q0.828125 0 1.390625 -0.625q0.578125 -0.625 0.578125 -1.640625q0 -0.984375 -0.546875 -1.546875q-0.546875 -0.5625 -1.4375 -0.5625q-0.5625 0 -1.015625 0.25q-0.4375 0.25 -0.6875 0.640625l-1.0625 -0.140625l0.890625 -4.765625l4.625 0l0 1.078125l-3.703125 0l-0.5 2.5q0.828125 -0.578125 1.75 -0.578125q1.21875 0 2.046875 0.84375q0.84375 0.84375 0.84375 2.171875q0 1.265625 -0.734375 2.1875q-0.890625 1.125 -2.4375 1.125q-1.265625 0 -2.078125 -0.703125q-0.796875 -0.71875 -0.90625 -1.890625z" fill-rule="nonzero"></path><path fill="#d9d9d9" d="m398.15485 233.87927l0 0c0 -12.550354 14.862732 -22.724411 33.19687 -22.724411l0 0c18.334106 0 33.19684 10.174057 33.19684 22.724411l0 0c0 12.550339 -14.862732 22.724396 -33.19684 22.724396l0 0c-18.334137 0 -33.19687 -10.174057 -33.19687 -22.724396z" fill-rule="evenodd"></path><path stroke="#000000" stroke-width="1.0" stroke-linejoin="round" stroke-linecap="butt" d="m398.15485 233.87927l0 0c0 -12.550354 14.862732 -22.724411 33.19687 -22.724411l0 0c18.334106 0 33.19684 10.174057 33.19684 22.724411l0 0c0 12.550339 -14.862732 22.724396 -33.19684 22.724396l0 0c-18.334137 0 -33.19687 -10.174057 -33.19687 -22.724396z" fill-rule="evenodd"></path><path fill="#000000" d="m421.56534 238.67926l0 -9.3125l1.265625 0l4.890625 7.3125l0 -7.3125l1.1875 0l0 9.3125l-1.265625 0l-4.890625 -7.3125l0 7.3125l-1.1875 0zm12.843903 0l0 -2.234375l-4.03125 0l0 -1.046875l4.234375 -6.03125l0.9375 0l0 6.03125l1.265625 0l0 1.046875l-1.265625 0l0 2.234375l-1.140625 0zm0 -3.28125l0 -4.1875l-2.921875 4.1875l2.921875 0z" fill-rule="nonzero"></path><path fill="#d9d9d9" d="m398.15485 172.18898l0 0c0 -12.550354 14.862732 -22.724411 33.19687 -22.724411l0 0c18.334106 0 33.19684 10.174057 33.19684 22.724411l0 0c0 12.550339 -14.862732 22.724411 -33.19684 22.724411l0 0c-18.334137 0 -33.19687 -10.174072 -33.19687 -22.724411z" fill-rule="evenodd"></path><path stroke="#000000" stroke-width="1.0" stroke-linejoin="round" stroke-linecap="butt" d="m398.15485 172.18898l0 0c0 -12.550354 14.862732 -22.724411 33.19687 -22.724411l0 0c18.334106 0 33.19684 10.174057 33.19684 22.724411l0 0c0 12.550339 -14.862732 22.724411 -33.19684 22.724411l0 0c-18.334137 0 -33.19687 -10.174072 -33.19687 -22.724411z" fill-rule="evenodd"></path><path fill="#000000" d="m421.56534 176.98898l0 -9.3125l1.265625 0l4.890625 7.3125l0 -7.3125l1.1875 0l0 9.3125l-1.265625 0l-4.890625 -7.3125l0 7.3125l-1.1875 0zm9.187653 -2.453125l1.140625 -0.15625q0.203125 0.96875 0.671875 1.40625q0.46875 0.421875 1.15625 0.421875q0.796875 0 1.34375 -0.546875q0.5625 -0.5625 0.5625 -1.390625q0 -0.796875 -0.515625 -1.296875q-0.5 -0.515625 -1.296875 -0.515625q-0.328125 0 -0.8125 0.125l0.125 -1.0q0.125 0.015625 0.1875 0.015625q0.734375 0 1.3125 -0.375q0.59375 -0.390625 0.59375 -1.1875q0 -0.625 -0.4375 -1.03125q-0.421875 -0.421875 -1.09375 -0.421875q-0.671875 0 -1.109375 0.421875q-0.4375 0.421875 -0.578125 1.25l-1.140625 -0.203125q0.21875 -1.140625 0.953125 -1.765625q0.75 -0.640625 1.84375 -0.640625q0.765625 0 1.40625 0.328125q0.640625 0.328125 0.984375 0.890625q0.34375 0.5625 0.34375 1.203125q0 0.59375 -0.328125 1.09375q-0.328125 0.5 -0.953125 0.78125q0.8125 0.203125 1.265625 0.796875q0.46875 0.59375 0.46875 1.5q0 1.21875 -0.890625 2.078125q-0.890625 0.84375 -2.25 0.84375q-1.21875 0 -2.03125 -0.734375q-0.8125 -0.734375 -0.921875 -1.890625z" fill-rule="nonzero"></path><path fill="#d9d9d9" d="m398.15485 110.49869l0 0c0 -12.550346 14.862732 -22.724411 33.19687 -22.724411l0 0c18.334106 0 33.19684 10.174065 33.19684 22.724411l0 0c0 12.550346 -14.862732 22.724411 -33.19684 22.724411l0 0c-18.334137 0 -33.19687 -10.174065 -33.19687 -22.724411z" fill-rule="evenodd"></path><path stroke="#000000" stroke-width="1.0" stroke-linejoin="round" stroke-linecap="butt" d="m398.15485 110.49869l0 0c0 -12.550346 14.862732 -22.724411 33.19687 -22.724411l0 0c18.334106 0 33.19684 10.174065 33.19684 22.724411l0 0c0 12.550346 -14.862732 22.724411 -33.19684 22.724411l0 0c-18.334137 0 -33.19687 -10.174065 -33.19687 -22.724411z" fill-rule="evenodd"></path><path fill="#000000" d="m421.56534 115.29869l0 -9.3125l1.265625 0l4.890625 7.3125l0 -7.3125l1.1875 0l0 9.3125l-1.265625 0l-4.890625 -7.3125l0 7.3125l-1.1875 0zm15.187653 -1.09375l0 1.09375l-6.15625 0q-0.015625 -0.40625 0.140625 -0.796875q0.234375 -0.625 0.75 -1.234375q0.515625 -0.609375 1.5 -1.40625q1.515625 -1.25 2.046875 -1.96875q0.53125 -0.734375 0.53125 -1.375q0 -0.6875 -0.484375 -1.140625q-0.484375 -0.46875 -1.265625 -0.46875q-0.828125 0 -1.328125 0.5q-0.484375 0.484375 -0.5 1.359375l-1.171875 -0.125q0.125 -1.3125 0.90625 -2.0q0.78125 -0.6875 2.109375 -0.6875q1.34375 0 2.125 0.75q0.78125 0.734375 0.78125 1.828125q0 0.5625 -0.234375 1.109375q-0.21875 0.53125 -0.75 1.140625q-0.53125 0.59375 -1.765625 1.625q-1.03125 0.859375 -1.328125 1.171875q-0.28125 0.3125 -0.46875 0.625l4.5625 0z" fill-rule="nonzero"></path><path fill="#d9d9d9" d="m398.15485 537.7218l0 0c0 -12.550354 14.862732 -22.724426 33.19687 -22.724426l0 0c18.334106 0 33.19684 10.174072 33.19684 22.724426l0 0c0 12.550354 -14.862732 22.724365 -33.19684 22.724365l0 0c-18.334137 0 -33.19687 -10.174011 -33.19687 -22.724365z" fill-rule="evenodd"></path><path stroke="#000000" stroke-width="1.0" stroke-linejoin="round" stroke-linecap="butt" d="m398.15485 537.7218l0 0c0 -12.550354 14.862732 -22.724426 33.19687 -22.724426l0 0c18.334106 0 33.19684 10.174072 33.19684 22.724426l0 0c0 12.550354 -14.862732 22.724365 -33.19684 22.724365l0 0c-18.334137 0 -33.19687 -10.174011 -33.19687 -22.724365z" fill-rule="evenodd"></path><path fill="#000000" d="m421.56534 542.5218l0 -9.3125l1.265625 0l4.890625 7.3125l0 -7.3125l1.1875 0l0 9.3125l-1.265625 0l-4.890625 -7.3125l0 7.3125l-1.1875 0zm9.359528 -2.15625l1.09375 -0.09375q0.140625 0.765625 0.53125 1.125q0.390625 0.34375 1.015625 0.34375q0.515625 0 0.90625 -0.234375q0.40625 -0.25 0.65625 -0.640625q0.265625 -0.40625 0.421875 -1.09375q0.171875 -0.6875 0.171875 -1.40625q0 -0.078125 0 -0.21875q-0.34375 0.546875 -0.9375 0.890625q-0.59375 0.328125 -1.28125 0.328125q-1.15625 0 -1.953125 -0.828125q-0.796875 -0.84375 -0.796875 -2.21875q0 -1.421875 0.828125 -2.28125q0.828125 -0.859375 2.09375 -0.859375q0.90625 0 1.65625 0.5q0.75 0.484375 1.140625 1.390625q0.390625 0.890625 0.390625 2.609375q0 1.78125 -0.390625 2.84375q-0.375 1.046875 -1.140625 1.609375q-0.765625 0.546875 -1.796875 0.546875q-1.09375 0 -1.796875 -0.59375q-0.6875 -0.609375 -0.8125 -1.71875zm4.671875 -4.109375q0 -0.984375 -0.53125 -1.546875q-0.515625 -0.578125 -1.25 -0.578125q-0.765625 0 -1.328125 0.625q-0.5625 0.609375 -0.5625 1.609375q0 0.875 0.53125 1.4375q0.53125 0.546875 1.328125 0.546875q0.796875 0 1.296875 -0.546875q0.515625 -0.5625 0.515625 -1.546875z" fill-rule="nonzero"></path><path fill="#d9d9d9" d="m398.15485 48.8084l0 0c0 -12.550346 14.862732 -22.72441 33.19687 -22.72441l0 0c18.334106 0 33.19684 10.174063 33.19684 22.72441l0 0c0 12.550346 -14.862732 22.724407 -33.19684 22.724407l0 0c-18.334137 0 -33.19687 -10.174061 -33.19687 -22.724407z" fill-rule="evenodd"></path><path stroke="#000000" stroke-width="1.0" stroke-linejoin="round" stroke-linecap="butt" d="m398.15485 48.8084l0 0c0 -12.550346 14.862732 -22.72441 33.19687 -22.72441l0 0c18.334106 0 33.19684 10.174063 33.19684 22.72441l0 0c0 12.550346 -14.862732 22.724407 -33.19684 22.724407l0 0c-18.334137 0 -33.19687 -10.174061 -33.19687 -22.724407z" fill-rule="evenodd"></path><path fill="#000000" d="m421.56534 53.6084l0 -9.3125l1.265625 0l4.890625 7.3125l0 -7.3125l1.1875 0l0 9.3125l-1.265625 0l-4.890625 -7.3125l0 7.3125l-1.1875 0zm13.484528 0l-1.140625 0l0 -7.28125q-0.421875 0.390625 -1.09375 0.796875q-0.65625 0.390625 -1.1875 0.578125l0 -1.109375q0.953125 -0.4375 1.671875 -1.078125q0.71875 -0.640625 1.015625 -1.25l0.734375 0l0 9.34375z" fill-rule="nonzero"></path><path fill="#d9d9d9" d="m398.15485 607.2743l0 0c0 -12.550354 14.862732 -22.724426 33.19687 -22.724426l0 0c18.334106 0 33.19684 10.174072 33.19684 22.724426l0 0c0 12.550354 -14.862732 22.724365 -33.19684 22.724365l0 0c-18.334137 0 -33.19687 -10.174011 -33.19687 -22.724365z" fill-rule="evenodd"></path><path stroke="#000000" stroke-width="1.0" stroke-linejoin="round" stroke-linecap="butt" d="m398.15485 607.2743l0 0c0 -12.550354 14.862732 -22.724426 33.19687 -22.724426l0 0c18.334106 0 33.19684 10.174072 33.19684 22.724426l0 0c0 12.550354 -14.862732 22.724365 -33.19684 22.724365l0 0c-18.334137 0 -33.19687 -10.174011 -33.19687 -22.724365z" fill-rule="evenodd"></path><path fill="#000000" d="m417.86237 612.0743l0 -9.3125l1.265625 0l4.890625 7.3125l0 -7.3125l1.1875 0l0 9.3125l-1.265625 0l-4.890625 -7.3125l0 7.3125l-1.1875 0zm13.484528 0l-1.140625 0l0 -7.28125q-0.421875 0.390625 -1.09375 0.796875q-0.65625 0.390625 -1.1875 0.578125l0 -1.109375q0.953125 -0.4375 1.671875 -1.078125q0.71875 -0.640625 1.015625 -1.25l0.734375 0l0 9.34375zm3.1156006 -4.59375q0 -1.640625 0.328125 -2.640625q0.34375 -1.015625 1.015625 -1.5625q0.671875 -0.546875 1.6875 -0.546875q0.75 0 1.3125 0.3125q0.5625 0.296875 0.921875 0.859375q0.375 0.5625 0.578125 1.390625q0.21875 0.8125 0.21875 2.1875q0 1.640625 -0.34375 2.65625q-0.328125 1.0 -1.0 1.546875q-0.671875 0.546875 -1.6875 0.546875q-1.34375 0 -2.125 -0.96875q-0.90625 -1.15625 -0.90625 -3.78125zm1.171875 0q0 2.296875 0.53125 3.0625q0.53125 0.75 1.328125 0.75q0.78125 0 1.3125 -0.75q0.546875 -0.765625 0.546875 -3.0625q0 -2.296875 -0.546875 -3.046875q-0.53125 -0.75 -1.328125 -0.75q-0.78125 0 -1.265625 0.65625q-0.578125 0.859375 -0.578125 3.140625z" fill-rule="nonzero"></path><path fill="#d9d9d9" d="m398.15485 676.8294l0 0c0 -12.550354 14.862732 -22.724426 33.19687 -22.724426l0 0c18.334106 0 33.19684 10.174072 33.19684 22.724426l0 0c0 12.550354 -14.862732 22.724426 -33.19684 22.724426l0 0c-18.334137 0 -33.19687 -10.174072 -33.19687 -22.724426z" fill-rule="evenodd"></path><path stroke="#000000" stroke-width="1.0" stroke-linejoin="round" stroke-linecap="butt" d="m398.15485 676.8294l0 0c0 -12.550354 14.862732 -22.724426 33.19687 -22.724426l0 0c18.334106 0 33.19684 10.174072 33.19684 22.724426l0 0c0 12.550354 -14.862732 22.724426 -33.19684 22.724426l0 0c-18.334137 0 -33.19687 -10.174072 -33.19687 -22.724426z" fill-rule="evenodd"></path><path fill="#000000" d="m417.86237 681.6294l0 -9.3125l1.265625 0l4.890625 7.3125l0 -7.3125l1.1875 0l0 9.3125l-1.265625 0l-4.890625 -7.3125l0 7.3125l-1.1875 0zm13.484528 0l-1.140625 0l0 -7.28125q-0.421875 0.390625 -1.09375 0.796875q-0.65625 0.390625 -1.1875 0.578125l0 -1.109375q0.953125 -0.4375 1.671875 -1.078125q0.71875 -0.640625 1.015625 -1.25l0.734375 0l0 9.34375zm7.4124756 0l-1.140625 0l0 -7.28125q-0.421875 0.390625 -1.09375 0.796875q-0.65625 0.390625 -1.1875 0.578125l0 -1.109375q0.953125 -0.4375 1.671875 -1.078125q0.71875 -0.640625 1.015625 -1.25l0.734375 0l0 9.34375z" fill-rule="nonzero"></path><path fill="#000000" fill-opacity="0.0" d="m135.18892 216.66405l262.96063 17.228348" fill-rule="evenodd"></path><path stroke="#000000" stroke-width="1.0" stroke-linejoin="round" stroke-linecap="butt" d="m135.18892 216.66405l262.96063 17.228348" fill-rule="evenodd"></path><path fill="#000000" fill-opacity="0.0" d="m135.18892 216.66405l262.96063 -44.472443" fill-rule="evenodd"></path><path stroke="#000000" stroke-width="1.0" stroke-linejoin="round" stroke-linecap="butt" d="m135.18892 216.66405l262.96063 -44.472443" fill-rule="evenodd"></path><path fill="#000000" fill-opacity="0.0" d="m135.18892 216.66405l262.96063 -106.17323" fill-rule="evenodd"></path><path stroke="#000000" stroke-width="1.0" stroke-linejoin="round" stroke-linecap="butt" d="m135.18892 216.66405l262.96063 -106.17323" fill-rule="evenodd"></path><path fill="#000000" fill-opacity="0.0" d="m135.18892 216.66405l262.96063 -167.84253" fill-rule="evenodd"></path><path stroke="#000000" stroke-width="1.0" stroke-linejoin="round" stroke-linecap="butt" d="m135.18892 216.66405l262.96063 -167.84253" fill-rule="evenodd"></path><path fill="#000000" fill-opacity="0.0" d="m135.18892 216.66405l262.96063 78.89763" fill-rule="evenodd"></path><path stroke="#000000" stroke-width="1.0" stroke-linejoin="round" stroke-linecap="butt" d="m135.18892 216.66405l262.96063 78.89763" fill-rule="evenodd"></path><path fill="#000000" fill-opacity="0.0" d="m135.18892 216.66405l262.96063 138.58266" fill-rule="evenodd"></path><path stroke="#000000" stroke-width="1.0" stroke-linejoin="round" stroke-linecap="butt" d="m135.18892 216.66405l262.96063 138.58266" fill-rule="evenodd"></path><path fill="#000000" fill-opacity="0.0" d="m135.18892 216.66405l262.96063 197.54329" fill-rule="evenodd"></path><path stroke="#000000" stroke-width="1.0" stroke-linejoin="round" stroke-linecap="butt" d="m135.18892 216.66405l262.96063 197.54329" fill-rule="evenodd"></path><path fill="#000000" fill-opacity="0.0" d="m135.18892 216.66405l262.96063 259.30707" fill-rule="evenodd"></path><path stroke="#000000" stroke-width="1.0" stroke-linejoin="round" stroke-linecap="butt" d="m135.18892 216.66405l262.96063 259.30707" fill-rule="evenodd"></path><path fill="#000000" fill-opacity="0.0" d="m135.18892 216.66405l262.96063 321.07086" fill-rule="evenodd"></path><path stroke="#000000" stroke-width="1.0" stroke-linejoin="round" stroke-linecap="butt" d="m135.18892 216.66405l262.96063 321.07086" fill-rule="evenodd"></path><path fill="#000000" fill-opacity="0.0" d="m135.18892 216.66405l262.96063 390.61414" fill-rule="evenodd"></path><path stroke="#000000" stroke-width="1.0" stroke-linejoin="round" stroke-linecap="butt" d="m135.18892 216.66405l262.96063 390.61414" fill-rule="evenodd"></path><path fill="#000000" fill-opacity="0.0" d="m135.18892 216.66405l262.96063 460.15747" fill-rule="evenodd"></path><path stroke="#000000" stroke-width="1.0" stroke-linejoin="round" stroke-linecap="butt" d="m135.18892 216.66405l262.96063 460.15747" fill-rule="evenodd"></path><path fill="#000000" fill-opacity="0.0" d="m135.18019 283.95276l262.96063 11.62204" fill-rule="evenodd"></path><path stroke="#000000" stroke-width="1.0" stroke-linejoin="round" stroke-linecap="butt" d="m135.18019 283.95276l262.96063 11.62204" fill-rule="evenodd"></path><path fill="#000000" fill-opacity="0.0" d="m135.18019 283.95276l262.96063 -50.07875" fill-rule="evenodd"></path><path stroke="#000000" stroke-width="1.0" stroke-linejoin="round" stroke-linecap="butt" d="m135.18019 283.95276l262.96063 -50.07875" fill-rule="evenodd"></path><path fill="#000000" fill-opacity="0.0" d="m135.18019 283.95276l262.96063 -111.74803" fill-rule="evenodd"></path><path stroke="#000000" stroke-width="1.0" stroke-linejoin="round" stroke-linecap="butt" d="m135.18019 283.95276l262.96063 -111.74803" fill-rule="evenodd"></path><path fill="#000000" fill-opacity="0.0" d="m135.18019 283.95276l262.96063 -173.44882" fill-rule="evenodd"></path><path stroke="#000000" stroke-width="1.0" stroke-linejoin="round" stroke-linecap="butt" d="m135.18019 283.95276l262.96063 -173.44882" fill-rule="evenodd"></path><path fill="#000000" fill-opacity="0.0" d="m135.18019 283.95276l262.96063 -235.14961" fill-rule="evenodd"></path><path stroke="#000000" stroke-width="1.0" stroke-linejoin="round" stroke-linecap="butt" d="m135.18019 283.95276l262.96063 -235.14961" fill-rule="evenodd"></path><path fill="#000000" fill-opacity="0.0" d="m135.18019 283.95276l262.96063 71.27557" fill-rule="evenodd"></path><path stroke="#000000" stroke-width="1.0" stroke-linejoin="round" stroke-linecap="butt" d="m135.18019 283.95276l262.96063 71.27557" fill-rule="evenodd"></path><path fill="#000000" fill-opacity="0.0" d="m135.18019 283.95276l262.96063 130.2362" fill-rule="evenodd"></path><path stroke="#000000" stroke-width="1.0" stroke-linejoin="round" stroke-linecap="butt" d="m135.18019 283.95276l262.96063 130.2362" fill-rule="evenodd"></path><path fill="#000000" fill-opacity="0.0" d="m135.18019 283.95276l262.96063 192.0" fill-rule="evenodd"></path><path stroke="#000000" stroke-width="1.0" stroke-linejoin="round" stroke-linecap="butt" d="m135.18019 283.95276l262.96063 192.0" fill-rule="evenodd"></path><path fill="#000000" fill-opacity="0.0" d="m135.18019 283.95276l262.96063 323.30707" fill-rule="evenodd"></path><path stroke="#000000" stroke-width="1.0" stroke-linejoin="round" stroke-linecap="butt" d="m135.18019 283.95276l262.96063 323.30707" fill-rule="evenodd"></path><path fill="#000000" fill-opacity="0.0" d="m135.18019 283.95276l262.96063 392.8819" fill-rule="evenodd"></path><path stroke="#000000" stroke-width="1.0" stroke-linejoin="round" stroke-linecap="butt" d="m135.18019 283.95276l262.96063 392.8819" fill-rule="evenodd"></path><path fill="#d9d9d9" d="m81.57389 283.95276l0 0c0 -13.92453 12.000175 -25.212616 26.803146 -25.212616l0 0c7.1086426 0 13.926125 2.6563416 18.95269 7.384613c5.0265656 4.7282715 7.850464 11.141205 7.850464 17.828003l0 0c0 13.92453 -12.000183 25.212585 -26.803154 25.212585l0 0c-14.802971 0 -26.803146 -11.288055 -26.803146 -25.212585z" fill-rule="evenodd"></path><path stroke="#000000" stroke-width="1.0" stroke-linejoin="round" stroke-linecap="butt" d="m81.57389 283.95276l0 0c0 -13.92453 12.000175 -25.212616 26.803146 -25.212616l0 0c7.1086426 0 13.926125 2.6563416 18.95269 7.384613c5.0265656 4.7282715 7.850464 11.141205 7.850464 17.828003l0 0c0 13.92453 -12.000183 25.212585 -26.803154 25.212585l0 0c-14.802971 0 -26.803146 -11.288055 -26.803146 -25.212585z" fill-rule="evenodd"></path><path fill="#000000" d="m99.455605 288.75275l0 -9.3125l6.71875 0l0 1.109375l-5.484375 0l0 2.84375l5.140625 0l0 1.09375l-5.140625 0l0 3.171875l5.703125 0l0 1.09375l-6.9375 0zm14.40538 -1.09375l0 1.09375l-6.15625 0q-0.015625 -0.40625 0.140625 -0.796875q0.234375 -0.625 0.75 -1.234375q0.515625 -0.609375 1.5 -1.40625q1.515625 -1.25 2.046875 -1.96875q0.53125 -0.734375 0.53125 -1.375q0 -0.6875 -0.484375 -1.140625q-0.484375 -0.46875 -1.265625 -0.46875q-0.828125 0 -1.328125 0.5q-0.484375 0.484375 -0.5 1.359375l-1.171875 -0.125q0.125 -1.3125 0.90625 -2.0q0.78125 -0.6875 2.109375 -0.6875q1.34375 0 2.125 0.75q0.78125 0.734375 0.78125 1.828125q0 0.5625 -0.234375 1.109375q-0.21875 0.53125 -0.75 1.140625q-0.53125 0.59375 -1.765625 1.625q-1.03125 0.859375 -1.328125 1.171875q-0.28125 0.3125 -0.46875 0.625l4.5625 0z" fill-rule="nonzero"></path><path fill="#d9d9d9" d="m81.58262 349.72833l0 0c0 -13.92453 12.000183 -25.212585 26.803154 -25.212585l0 0c7.108635 0 13.926125 2.656311 18.95269 7.384613c5.026558 4.7282715 7.850456 11.141174 7.850456 17.827972l0 0c0 13.924561 -12.000175 25.212616 -26.803146 25.212616l0 0c-14.802971 0 -26.803154 -11.288055 -26.803154 -25.212616z" fill-rule="evenodd"></path><path stroke="#000000" stroke-width="1.0" stroke-linejoin="round" stroke-linecap="butt" d="m81.58262 349.72833l0 0c0 -13.92453 12.000183 -25.212585 26.803154 -25.212585l0 0c7.108635 0 13.926125 2.656311 18.95269 7.384613c5.026558 4.7282715 7.850456 11.141174 7.850456 17.827972l0 0c0 13.924561 -12.000175 25.212616 -26.803146 25.212616l0 0c-14.802971 0 -26.803154 -11.288055 -26.803154 -25.212616z" fill-rule="evenodd"></path><path fill="#000000" d="m99.46433 354.52835l0 -9.3125l6.71875 0l0 1.109375l-5.484375 0l0 2.84375l5.140625 0l0 1.09375l-5.140625 0l0 3.171875l5.703125 0l0 1.09375l-6.9375 0zm8.40538 -2.453125l1.140625 -0.15625q0.203125 0.96875 0.671875 1.40625q0.46875 0.421875 1.15625 0.421875q0.796875 0 1.34375 -0.546875q0.5625 -0.5625 0.5625 -1.390625q0 -0.796875 -0.515625 -1.296875q-0.5 -0.515625 -1.296875 -0.515625q-0.328125 0 -0.8125 0.125l0.125 -1.0q0.125 0.015625 0.1875 0.015625q0.734375 0 1.3125 -0.375q0.59375 -0.390625 0.59375 -1.1875q0 -0.625 -0.4375 -1.03125q-0.421875 -0.421875 -1.09375 -0.421875q-0.671875 0 -1.109375 0.421875q-0.4375 0.421875 -0.578125 1.25l-1.140625 -0.203125q0.21875 -1.140625 0.953125 -1.765625q0.75 -0.640625 1.84375 -0.640625q0.765625 0 1.40625 0.328125q0.640625 0.328125 0.984375 0.890625q0.34375 0.5625 0.34375 1.203125q0 0.59375 -0.328125 1.09375q-0.328125 0.5 -0.953125 0.78125q0.8125 0.203125 1.265625 0.796875q0.46875 0.59375 0.46875 1.5q0 1.21875 -0.890625 2.078125q-0.890625 0.84375 -2.25 0.84375q-1.21875 0 -2.03125 -0.734375q-0.8125 -0.734375 -0.921875 -1.890625z" fill-rule="nonzero"></path><path fill="#d9d9d9" d="m81.58262 415.50262l0 0c0 -13.92453 12.000183 -25.212585 26.803154 -25.212585l0 0c7.108635 0 13.926125 2.656311 18.95269 7.3845825c5.026558 4.7282715 7.850456 11.141205 7.850456 17.828003l0 0c0 13.92453 -12.000175 25.212585 -26.803146 25.212585l0 0c-14.802971 0 -26.803154 -11.288055 -26.803154 -25.212585z" fill-rule="evenodd"></path><path stroke="#000000" stroke-width="1.0" stroke-linejoin="round" stroke-linecap="butt" d="m81.58262 415.50262l0 0c0 -13.92453 12.000183 -25.212585 26.803154 -25.212585l0 0c7.108635 0 13.926125 2.656311 18.95269 7.3845825c5.026558 4.7282715 7.850456 11.141205 7.850456 17.828003l0 0c0 13.92453 -12.000175 25.212585 -26.803146 25.212585l0 0c-14.802971 0 -26.803154 -11.288055 -26.803154 -25.212585z" fill-rule="evenodd"></path><path fill="#000000" d="m99.46433 420.3026l0 -9.3125l6.71875 0l0 1.109375l-5.484375 0l0 2.84375l5.140625 0l0 1.09375l-5.140625 0l0 3.171875l5.703125 0l0 1.09375l-6.9375 0zm12.06163 0l0 -2.234375l-4.03125 0l0 -1.046875l4.234375 -6.03125l0.9375 0l0 6.03125l1.265625 0l0 1.046875l-1.265625 0l0 2.234375l-1.140625 0zm0 -3.28125l0 -4.1875l-2.921875 4.1875l2.921875 0z" fill-rule="nonzero"></path><path fill="#d9d9d9" d="m81.58262 481.17978l0 0c0 -13.92453 12.000183 -25.212585 26.803154 -25.212585l0 0c7.108635 0 13.926125 2.656311 18.95269 7.3845825c5.026558 4.728302 7.850456 11.141205 7.850456 17.828003l0 0c0 13.92453 -12.000175 25.212616 -26.803146 25.212616l0 0c-14.802971 0 -26.803154 -11.288086 -26.803154 -25.212616z" fill-rule="evenodd"></path><path stroke="#000000" stroke-width="1.0" stroke-linejoin="round" stroke-linecap="butt" d="m81.58262 481.17978l0 0c0 -13.92453 12.000183 -25.212585 26.803154 -25.212585l0 0c7.108635 0 13.926125 2.656311 18.95269 7.3845825c5.026558 4.728302 7.850456 11.141205 7.850456 17.828003l0 0c0 13.92453 -12.000175 25.212616 -26.803146 25.212616l0 0c-14.802971 0 -26.803154 -11.288086 -26.803154 -25.212616z" fill-rule="evenodd"></path><path fill="#000000" d="m99.46433 485.9798l0 -9.3125l6.71875 0l0 1.109375l-5.484375 0l0 2.84375l5.140625 0l0 1.09375l-5.140625 0l0 3.171875l5.703125 0l0 1.09375l-6.9375 0zm8.40538 -2.4375l1.1875 -0.109375q0.140625 0.890625 0.625 1.328125q0.484375 0.4375 1.171875 0.4375q0.828125 0 1.390625 -0.625q0.578125 -0.625 0.578125 -1.640625q0 -0.984375 -0.546875 -1.546875q-0.546875 -0.5625 -1.4375 -0.5625q-0.5625 0 -1.015625 0.25q-0.4375 0.25 -0.6875 0.640625l-1.0625 -0.140625l0.890625 -4.765625l4.625 0l0 1.078125l-3.703125 0l-0.5 2.5q0.828125 -0.578125 1.75 -0.578125q1.21875 0 2.046875 0.84375q0.84375 0.84375 0.84375 2.171875q0 1.265625 -0.734375 2.1875q-0.890625 1.125 -2.4375 1.125q-1.265625 0 -2.078125 -0.703125q-0.796875 -0.71875 -0.90625 -1.890625z" fill-rule="nonzero"></path><path fill="#d9d9d9" d="m81.55643 546.8583l0 0c0 -13.924561 12.000183 -25.212585 26.803154 -25.212585l0 0c7.108635 0 13.926125 2.656311 18.95269 7.3845825c5.0265656 4.7282715 7.850464 11.141174 7.850464 17.828003l0 0c0 13.9244995 -12.000183 25.212585 -26.803154 25.212585l0 0c-14.802971 0 -26.803154 -11.288086 -26.803154 -25.212585z" fill-rule="evenodd"></path><path stroke="#000000" stroke-width="1.0" stroke-linejoin="round" stroke-linecap="butt" d="m81.55643 546.8583l0 0c0 -13.924561 12.000183 -25.212585 26.803154 -25.212585l0 0c7.108635 0 13.926125 2.656311 18.95269 7.3845825c5.0265656 4.7282715 7.850464 11.141174 7.850464 17.828003l0 0c0 13.9244995 -12.000183 25.212585 -26.803154 25.212585l0 0c-14.802971 0 -26.803154 -11.288086 -26.803154 -25.212585z" fill-rule="evenodd"></path><path fill="#000000" d="m99.43814 551.65826l0 -9.3125l6.71875 0l0 1.109375l-5.484375 0l0 2.84375l5.140625 0l0 1.09375l-5.140625 0l0 3.171875l5.703125 0l0 1.09375l-6.9375 0zm14.327255 -7.03125l-1.140625 0.09375q-0.140625 -0.671875 -0.421875 -0.984375q-0.46875 -0.484375 -1.140625 -0.484375q-0.546875 0 -0.96875 0.3125q-0.53125 0.390625 -0.84375 1.140625q-0.3125 0.75 -0.328125 2.15625q0.40625 -0.625 1.0 -0.921875q0.609375 -0.3125 1.265625 -0.3125q1.140625 0 1.9375 0.84375q0.8125 0.828125 0.8125 2.171875q0 0.875 -0.390625 1.625q-0.375 0.75 -1.03125 1.15625q-0.65625 0.390625 -1.5 0.390625q-1.421875 0 -2.328125 -1.046875q-0.90625 -1.046875 -0.90625 -3.46875q0 -2.6875 1.0 -3.921875q0.875 -1.0625 2.34375 -1.0625q1.09375 0 1.796875 0.625q0.703125 0.609375 0.84375 1.6875zm-4.671875 4.015625q0 0.59375 0.25 1.140625q0.25 0.53125 0.703125 0.8125q0.453125 0.28125 0.953125 0.28125q0.71875 0 1.234375 -0.578125q0.53125 -0.59375 0.53125 -1.59375q0 -0.96875 -0.515625 -1.515625q-0.515625 -0.5625 -1.296875 -0.5625q-0.78125 0 -1.328125 0.5625q-0.53125 0.546875 -0.53125 1.453125z" fill-rule="nonzero"></path><path fill="#000000" fill-opacity="0.0" d="m135.18892 349.72833l262.96063 -300.91336" fill-rule="evenodd"></path><path stroke="#000000" stroke-width="1.0" stroke-linejoin="round" stroke-linecap="butt" d="m135.18892 349.72833l262.96063 -300.91336" fill-rule="evenodd"></path><path fill="#000000" fill-opacity="0.0" d="m135.18892 349.72833l262.96063 -239.24408" fill-rule="evenodd"></path><path stroke="#000000" stroke-width="1.0" stroke-linejoin="round" stroke-linecap="butt" d="m135.18892 349.72833l262.96063 -239.24408" fill-rule="evenodd"></path><path fill="#000000" fill-opacity="0.0" d="m135.18892 349.72833l262.96063 -177.54329" fill-rule="evenodd"></path><path stroke="#000000" stroke-width="1.0" stroke-linejoin="round" stroke-linecap="butt" d="m135.18892 349.72833l262.96063 -177.54329" fill-rule="evenodd"></path><path fill="#000000" fill-opacity="0.0" d="m135.18892 349.72833l262.96063 -115.8425" fill-rule="evenodd"></path><path stroke="#000000" stroke-width="1.0" stroke-linejoin="round" stroke-linecap="butt" d="m135.18892 349.72833l262.96063 -115.8425" fill-rule="evenodd"></path><path fill="#000000" fill-opacity="0.0" d="m135.18892 349.72833l262.96063 -54.173218" fill-rule="evenodd"></path><path stroke="#000000" stroke-width="1.0" stroke-linejoin="round" stroke-linecap="butt" d="m135.18892 349.72833l262.96063 -54.173218" fill-rule="evenodd"></path><path fill="#000000" fill-opacity="0.0" d="m135.18892 349.72833l262.96063 5.5118103" fill-rule="evenodd"></path><path stroke="#000000" stroke-width="1.0" stroke-linejoin="round" stroke-linecap="butt" d="m135.18892 349.72833l262.96063 5.5118103" fill-rule="evenodd"></path><path fill="#000000" fill-opacity="0.0" d="m135.18892 349.72833l262.96063 64.47244" fill-rule="evenodd"></path><path stroke="#000000" stroke-width="1.0" stroke-linejoin="round" stroke-linecap="butt" d="m135.18892 349.72833l262.96063 64.47244" fill-rule="evenodd"></path><path fill="#000000" fill-opacity="0.0" d="m135.18892 349.72833l262.96063 126.23624" fill-rule="evenodd"></path><path stroke="#000000" stroke-width="1.0" stroke-linejoin="round" stroke-linecap="butt" d="m135.18892 349.72833l262.96063 126.23624" fill-rule="evenodd"></path><path fill="#000000" fill-opacity="0.0" d="m135.18892 349.72833l262.96063 188.0" fill-rule="evenodd"></path><path stroke="#000000" stroke-width="1.0" stroke-linejoin="round" stroke-linecap="butt" d="m135.18892 349.72833l262.96063 188.0" fill-rule="evenodd"></path><path fill="#000000" fill-opacity="0.0" d="m135.18892 349.72833l262.96063 257.54333" fill-rule="evenodd"></path><path stroke="#000000" stroke-width="1.0" stroke-linejoin="round" stroke-linecap="butt" d="m135.18892 349.72833l262.96063 257.54333" fill-rule="evenodd"></path><path fill="#000000" fill-opacity="0.0" d="m135.18892 349.72833l262.96063 327.0866" fill-rule="evenodd"></path><path stroke="#000000" stroke-width="1.0" stroke-linejoin="round" stroke-linecap="butt" d="m135.18892 349.72833l262.96063 327.0866" fill-rule="evenodd"></path><path fill="#000000" fill-opacity="0.0" d="m135.18892 415.50262l262.96063 -366.70865" fill-rule="evenodd"></path><path stroke="#000000" stroke-width="1.0" stroke-linejoin="round" stroke-linecap="butt" d="m135.18892 415.50262l262.96063 -366.70865" fill-rule="evenodd"></path><path fill="#000000" fill-opacity="0.0" d="m135.18892 415.50262l262.96063 -305.00787" fill-rule="evenodd"></path><path stroke="#000000" stroke-width="1.0" stroke-linejoin="round" stroke-linecap="butt" d="m135.18892 415.50262l262.96063 -305.00787" fill-rule="evenodd"></path><path fill="#000000" fill-opacity="0.0" d="m135.18892 415.50262l262.96063 -243.30708" fill-rule="evenodd"></path><path stroke="#000000" stroke-width="1.0" stroke-linejoin="round" stroke-linecap="butt" d="m135.18892 415.50262l262.96063 -243.30708" fill-rule="evenodd"></path><path fill="#000000" fill-opacity="0.0" d="m135.18892 415.50262l262.96063 -181.6378" fill-rule="evenodd"></path><path stroke="#000000" stroke-width="1.0" stroke-linejoin="round" stroke-linecap="butt" d="m135.18892 415.50262l262.96063 -181.6378" fill-rule="evenodd"></path><path fill="#000000" fill-opacity="0.0" d="m135.18892 415.50262l262.96063 -119.93701" fill-rule="evenodd"></path><path stroke="#000000" stroke-width="1.0" stroke-linejoin="round" stroke-linecap="butt" d="m135.18892 415.50262l262.96063 -119.93701" fill-rule="evenodd"></path><path fill="#000000" fill-opacity="0.0" d="m135.18892 415.50262l262.96063 -60.283478" fill-rule="evenodd"></path><path stroke="#000000" stroke-width="1.0" stroke-linejoin="round" stroke-linecap="butt" d="m135.18892 415.50262l262.96063 -60.283478" fill-rule="evenodd"></path><path fill="#000000" fill-opacity="0.0" d="m135.18892 415.50262l262.96063 -1.2913513" fill-rule="evenodd"></path><path stroke="#000000" stroke-width="1.0" stroke-linejoin="round" stroke-linecap="butt" d="m135.18892 415.50262l262.96063 -1.2913513" fill-rule="evenodd"></path><path fill="#000000" fill-opacity="0.0" d="m135.18892 415.50262l262.96063 60.472443" fill-rule="evenodd"></path><path stroke="#000000" stroke-width="1.0" stroke-linejoin="round" stroke-linecap="butt" d="m135.18892 415.50262l262.96063 60.472443" fill-rule="evenodd"></path><path fill="#000000" fill-opacity="0.0" d="m135.18892 415.50262l262.96063 122.20471" fill-rule="evenodd"></path><path stroke="#000000" stroke-width="1.0" stroke-linejoin="round" stroke-linecap="butt" d="m135.18892 415.50262l262.96063 122.20471" fill-rule="evenodd"></path><path fill="#000000" fill-opacity="0.0" d="m135.18892 415.50262l262.96063 191.77954" fill-rule="evenodd"></path><path stroke="#000000" stroke-width="1.0" stroke-linejoin="round" stroke-linecap="butt" d="m135.18892 415.50262l262.96063 191.77954" fill-rule="evenodd"></path><path fill="#000000" fill-opacity="0.0" d="m135.18892 415.50262l262.96063 261.3228" fill-rule="evenodd"></path><path stroke="#000000" stroke-width="1.0" stroke-linejoin="round" stroke-linecap="butt" d="m135.18892 415.50262l262.96063 261.3228" fill-rule="evenodd"></path><path fill="#000000" fill-opacity="0.0" d="m135.18892 349.72833l262.96063 188.0" fill-rule="evenodd"></path><path stroke="#000000" stroke-width="1.0" stroke-linejoin="round" stroke-linecap="butt" d="m135.18892 349.72833l262.96063 188.0" fill-rule="evenodd"></path><path fill="#000000" fill-opacity="0.0" d="m135.18892 481.17978l262.96063 -432.37793" fill-rule="evenodd"></path><path stroke="#000000" stroke-width="1.0" stroke-linejoin="round" stroke-linecap="butt" d="m135.18892 481.17978l262.96063 -432.37793" fill-rule="evenodd"></path><path fill="#000000" fill-opacity="0.0" d="m135.18892 481.17978l262.96063 -370.67715" fill-rule="evenodd"></path><path stroke="#000000" stroke-width="1.0" stroke-linejoin="round" stroke-linecap="butt" d="m135.18892 481.17978l262.96063 -370.67715" fill-rule="evenodd"></path><path fill="#000000" fill-opacity="0.0" d="m135.18892 481.17978l262.96063 -308.97638" fill-rule="evenodd"></path><path stroke="#000000" stroke-width="1.0" stroke-linejoin="round" stroke-linecap="butt" d="m135.18892 481.17978l262.96063 -308.97638" fill-rule="evenodd"></path><path fill="#000000" fill-opacity="0.0" d="m135.18892 481.17978l262.96063 -247.30708" fill-rule="evenodd"></path><path stroke="#000000" stroke-width="1.0" stroke-linejoin="round" stroke-linecap="butt" d="m135.18892 481.17978l262.96063 -247.30708" fill-rule="evenodd"></path><path fill="#000000" fill-opacity="0.0" d="m135.18892 481.17978l262.96063 -185.6063" fill-rule="evenodd"></path><path stroke="#000000" stroke-width="1.0" stroke-linejoin="round" stroke-linecap="butt" d="m135.18892 481.17978l262.96063 -185.6063" fill-rule="evenodd"></path><path fill="#000000" fill-opacity="0.0" d="m135.18892 481.17978l262.96063 -125.95276" fill-rule="evenodd"></path><path stroke="#000000" stroke-width="1.0" stroke-linejoin="round" stroke-linecap="butt" d="m135.18892 481.17978l262.96063 -125.95276" fill-rule="evenodd"></path><path fill="#000000" fill-opacity="0.0" d="m135.18892 481.17978l262.96063 -66.96063" fill-rule="evenodd"></path><path stroke="#000000" stroke-width="1.0" stroke-linejoin="round" stroke-linecap="butt" d="m135.18892 481.17978l262.96063 -66.96063" fill-rule="evenodd"></path><path fill="#000000" fill-opacity="0.0" d="m135.18892 481.17978l262.96063 -5.2283325" fill-rule="evenodd"></path><path stroke="#000000" stroke-width="1.0" stroke-linejoin="round" stroke-linecap="butt" d="m135.18892 481.17978l262.96063 -5.2283325" fill-rule="evenodd"></path><path fill="#000000" fill-opacity="0.0" d="m135.18892 481.17978l262.96063 56.53543" fill-rule="evenodd"></path><path stroke="#000000" stroke-width="1.0" stroke-linejoin="round" stroke-linecap="butt" d="m135.18892 481.17978l262.96063 56.53543" fill-rule="evenodd"></path><path fill="#000000" fill-opacity="0.0" d="m135.18892 481.17978l262.96063 126.11026" fill-rule="evenodd"></path><path stroke="#000000" stroke-width="1.0" stroke-linejoin="round" stroke-linecap="butt" d="m135.18892 481.17978l262.96063 126.11026" fill-rule="evenodd"></path><path fill="#000000" fill-opacity="0.0" d="m135.18892 481.17978l262.96063 195.65353" fill-rule="evenodd"></path><path stroke="#000000" stroke-width="1.0" stroke-linejoin="round" stroke-linecap="butt" d="m135.18892 481.17978l262.96063 195.65353" fill-rule="evenodd"></path><path fill="#000000" fill-opacity="0.0" d="m135.16273 546.8583l262.99213 -498.04724" fill-rule="evenodd"></path><path stroke="#000000" stroke-width="1.0" stroke-linejoin="round" stroke-linecap="butt" d="m135.16273 546.8583l262.99213 -498.04724" fill-rule="evenodd"></path><path fill="#000000" fill-opacity="0.0" d="m135.16273 546.8583l262.99213 -436.34647" fill-rule="evenodd"></path><path stroke="#000000" stroke-width="1.0" stroke-linejoin="round" stroke-linecap="butt" d="m135.16273 546.8583l262.99213 -436.34647" fill-rule="evenodd"></path><path fill="#000000" fill-opacity="0.0" d="m135.16273 546.8583l262.99213 -374.6772" fill-rule="evenodd"></path><path stroke="#000000" stroke-width="1.0" stroke-linejoin="round" stroke-linecap="butt" d="m135.16273 546.8583l262.99213 -374.6772" fill-rule="evenodd"></path><path fill="#000000" fill-opacity="0.0" d="m135.16273 546.8583l262.99213 -312.97638" fill-rule="evenodd"></path><path stroke="#000000" stroke-width="1.0" stroke-linejoin="round" stroke-linecap="butt" d="m135.16273 546.8583l262.99213 -312.97638" fill-rule="evenodd"></path><path fill="#000000" fill-opacity="0.0" d="m135.16273 546.8583l262.99213 -251.2756" fill-rule="evenodd"></path><path stroke="#000000" stroke-width="1.0" stroke-linejoin="round" stroke-linecap="butt" d="m135.16273 546.8583l262.99213 -251.2756" fill-rule="evenodd"></path><path fill="#000000" fill-opacity="0.0" d="m135.16273 546.8583l262.99213 -191.62207" fill-rule="evenodd"></path><path stroke="#000000" stroke-width="1.0" stroke-linejoin="round" stroke-linecap="butt" d="m135.16273 546.8583l262.99213 -191.62207" fill-rule="evenodd"></path><path fill="#000000" fill-opacity="0.0" d="m135.16273 546.8583l262.99213 -132.66144" fill-rule="evenodd"></path><path stroke="#000000" stroke-width="1.0" stroke-linejoin="round" stroke-linecap="butt" d="m135.16273 546.8583l262.99213 -132.66144" fill-rule="evenodd"></path><path fill="#000000" fill-opacity="0.0" d="m135.16273 546.8583l262.99213 -70.897644" fill-rule="evenodd"></path><path stroke="#000000" stroke-width="1.0" stroke-linejoin="round" stroke-linecap="butt" d="m135.16273 546.8583l262.99213 -70.897644" fill-rule="evenodd"></path><path fill="#000000" fill-opacity="0.0" d="m135.16273 546.8583l262.99213 -9.13385" fill-rule="evenodd"></path><path stroke="#000000" stroke-width="1.0" stroke-linejoin="round" stroke-linecap="butt" d="m135.16273 546.8583l262.99213 -9.13385" fill-rule="evenodd"></path><path fill="#000000" fill-opacity="0.0" d="m135.16273 546.8583l262.99213 60.409424" fill-rule="evenodd"></path><path stroke="#000000" stroke-width="1.0" stroke-linejoin="round" stroke-linecap="butt" d="m135.16273 546.8583l262.99213 60.409424" fill-rule="evenodd"></path><path fill="#000000" fill-opacity="0.0" d="m135.16273 546.8583l262.99213 129.98425" fill-rule="evenodd"></path><path stroke="#000000" stroke-width="1.0" stroke-linejoin="round" stroke-linecap="butt" d="m135.16273 546.8583l262.99213 129.98425" fill-rule="evenodd"></path><path fill="#d9d9d9" d="m783.02625 350.30972l0 0c0 -23.465576 22.406921 -42.48819 50.04724 -42.48819l0 0c27.64032 0 50.04724 19.022614 50.04724 42.48819l0 0c0 23.465576 -22.406921 42.48819 -50.04724 42.48819l0 0c-27.64032 0 -50.04724 -19.022614 -50.04724 -42.48819z" fill-rule="evenodd"></path><path stroke="#000000" stroke-width="1.0" stroke-linejoin="round" stroke-linecap="butt" d="m783.02625 350.30972l0 0c0 -23.465576 22.406921 -42.48819 50.04724 -42.48819l0 0c27.64032 0 50.04724 19.022614 50.04724 42.48819l0 0c0 23.465576 -22.406921 42.48819 -50.04724 42.48819l0 0c-27.64032 0 -50.04724 -19.022614 -50.04724 -42.48819z" fill-rule="evenodd"></path><path fill="#000000" d="m823.09406 352.8547l1.6875 -0.140625q0.125 1.015625 0.5625 1.671875q0.4375 0.65625 1.359375 1.0625q0.9375 0.40625 2.09375 0.40625q1.03125 0 1.8125 -0.3125q0.796875 -0.3125 1.1875 -0.84375q0.390625 -0.53125 0.390625 -1.15625q0 -0.640625 -0.375 -1.109375q-0.375 -0.484375 -1.234375 -0.8125q-0.546875 -0.21875 -2.421875 -0.65625q-1.875 -0.453125 -2.625 -0.859375q-0.96875 -0.515625 -1.453125 -1.265625q-0.46875 -0.75 -0.46875 -1.6875q0 -1.03125 0.578125 -1.921875q0.59375 -0.90625 1.703125 -1.359375q1.125 -0.46875 2.5 -0.46875q1.515625 0 2.671875 0.484375q1.15625 0.484375 1.765625 1.4375q0.625 0.9375 0.671875 2.140625l-1.71875 0.125q-0.140625 -1.28125 -0.953125 -1.9375q-0.796875 -0.671875 -2.359375 -0.671875q-1.625 0 -2.375 0.609375q-0.75 0.59375 -0.75 1.4375q0 0.734375 0.53125 1.203125q0.515625 0.46875 2.703125 0.96875q2.203125 0.5 3.015625 0.875q1.1875 0.546875 1.75 1.390625q0.578125 0.828125 0.578125 1.921875q0 1.09375 -0.625 2.0625q-0.625 0.953125 -1.796875 1.484375q-1.15625 0.53125 -2.609375 0.53125q-1.84375 0 -3.09375 -0.53125q-1.25 -0.546875 -1.96875 -1.625q-0.703125 -1.078125 -0.734375 -2.453125zm18.662292 4.375l-1.671875 0l0 -10.640625q-0.59375 0.578125 -1.578125 1.15625q-0.984375 0.5625 -1.765625 0.859375l0 -1.625q1.40625 -0.65625 2.453125 -1.59375q1.046875 -0.9375 1.484375 -1.8125l1.078125 0l0 13.65625z" fill-rule="nonzero"></path><path fill="#000000" fill-opacity="0.0" d="m464.54855 676.8294l318.4882 -326.51968" fill-rule="evenodd"></path><path stroke="#000000" stroke-width="1.0" stroke-linejoin="round" stroke-linecap="butt" d="m464.54855 676.8294l318.4882 -326.51968" fill-rule="evenodd"></path><path fill="#000000" fill-opacity="0.0" d="m464.54855 607.2743l318.4882 -256.97638" fill-rule="evenodd"></path><path stroke="#000000" stroke-width="1.0" stroke-linejoin="round" stroke-linecap="butt" d="m464.54855 607.2743l318.4882 -256.97638" fill-rule="evenodd"></path><path fill="#000000" fill-opacity="0.0" d="m464.54855 537.7218l318.4882 -187.40158" fill-rule="evenodd"></path><path stroke="#000000" stroke-width="1.0" stroke-linejoin="round" stroke-linecap="butt" d="m464.54855 537.7218l318.4882 -187.40158" fill-rule="evenodd"></path><path fill="#000000" fill-opacity="0.0" d="m464.54855 475.96194l318.4882 -125.63779" fill-rule="evenodd"></path><path stroke="#000000" stroke-width="1.0" stroke-linejoin="round" stroke-linecap="butt" d="m464.54855 475.96194l318.4882 -125.63779" fill-rule="evenodd"></path><path fill="#000000" fill-opacity="0.0" d="m464.54855 414.2034l318.4882 -63.905487" fill-rule="evenodd"></path><path stroke="#000000" stroke-width="1.0" stroke-linejoin="round" stroke-linecap="butt" d="m464.54855 414.2034l318.4882 -63.905487" fill-rule="evenodd"></path><path fill="#000000" fill-opacity="0.0" d="m464.54855 355.23227l318.4882 -4.9133606" fill-rule="evenodd"></path><path stroke="#000000" stroke-width="1.0" stroke-linejoin="round" stroke-linecap="butt" d="m464.54855 355.23227l318.4882 -4.9133606" fill-rule="evenodd"></path><path fill="#000000" fill-opacity="0.0" d="m464.54855 295.56824l318.4882 54.740173" fill-rule="evenodd"></path><path stroke="#000000" stroke-width="1.0" stroke-linejoin="round" stroke-linecap="butt" d="m464.54855 295.56824l318.4882 54.740173" fill-rule="evenodd"></path><path fill="#000000" fill-opacity="0.0" d="m464.54855 233.87927l318.4882 116.44095" fill-rule="evenodd"></path><path stroke="#000000" stroke-width="1.0" stroke-linejoin="round" stroke-linecap="butt" d="m464.54855 233.87927l318.4882 116.44095" fill-rule="evenodd"></path><path fill="#000000" fill-opacity="0.0" d="m464.54855 172.18898l318.4882 178.11024" fill-rule="evenodd"></path><path stroke="#000000" stroke-width="1.0" stroke-linejoin="round" stroke-linecap="butt" d="m464.54855 172.18898l318.4882 178.11024" fill-rule="evenodd"></path><path fill="#000000" fill-opacity="0.0" d="m464.54855 110.49869l318.4882 239.81104" fill-rule="evenodd"></path><path stroke="#000000" stroke-width="1.0" stroke-linejoin="round" stroke-linecap="butt" d="m464.54855 110.49869l318.4882 239.81104" fill-rule="evenodd"></path><path fill="#000000" fill-opacity="0.0" d="m464.54855 48.8084l318.4882 301.5118" fill-rule="evenodd"></path><path stroke="#000000" stroke-width="1.0" stroke-linejoin="round" stroke-linecap="butt" d="m464.54855 48.8084l318.4882 301.5118" fill-rule="evenodd"></path><path fill="#000000" fill-opacity="0.0" d="m833.0131 13.220472l-625.6378 2.3307085" fill-rule="evenodd"></path><path stroke="#000000" stroke-width="1.0" stroke-linejoin="round" stroke-linecap="butt" d="m833.0131 13.220472l-625.6378 2.3307085" fill-rule="evenodd"></path><path fill="#cfe2f3" d="m127.41732 78.51575l161.95276 0l0 29.133858l-161.95276 0z" fill-rule="evenodd"></path><path stroke="#000000" stroke-width="1.0" stroke-linejoin="round" stroke-linecap="butt" d="m127.41732 78.51575l161.95276 0l0 29.133858l-161.95276 0z" fill-rule="evenodd"></path><path fill="#000000" d="m137.80795 100.00268l0 -13.59375l5.109375 0q1.546875 0 2.484375 0.40625q0.953125 0.40625 1.484375 1.265625q0.53125 0.859375 0.53125 1.796875q0 0.875 -0.46875 1.65625q-0.46875 0.765625 -1.4375 1.234375q1.234375 0.359375 1.890625 1.234375q0.671875 0.875 0.671875 2.0625q0 0.953125 -0.40625 1.78125q-0.390625 0.8125 -0.984375 1.265625q-0.59375 0.4375 -1.5 0.671875q-0.890625 0.21875 -2.1875 0.21875l-5.1875 0zm1.796875 -7.890625l2.9375 0q1.203125 0 1.71875 -0.15625q0.6875 -0.203125 1.03125 -0.671875q0.359375 -0.46875 0.359375 -1.1875q0 -0.671875 -0.328125 -1.1875q-0.328125 -0.515625 -0.9375 -0.703125q-0.59375 -0.203125 -2.0625 -0.203125l-2.71875 0l0 4.109375zm0 6.28125l3.390625 0q0.875 0 1.21875 -0.0625q0.625 -0.109375 1.046875 -0.359375q0.421875 -0.265625 0.6875 -0.765625q0.265625 -0.5 0.265625 -1.140625q0 -0.765625 -0.390625 -1.328125q-0.390625 -0.5625 -1.078125 -0.78125q-0.6875 -0.234375 -1.984375 -0.234375l-3.15625 0l0 4.671875zm16.943573 0.390625q-0.9375 0.796875 -1.796875 1.125q-0.859375 0.3125 -1.84375 0.3125q-1.609375 0 -2.484375 -0.78125q-0.875 -0.796875 -0.875 -2.03125q0 -0.734375 0.328125 -1.328125q0.328125 -0.59375 0.859375 -0.953125q0.53125 -0.359375 1.203125 -0.546875q0.5 -0.140625 1.484375 -0.25q2.03125 -0.25 2.984375 -0.578125q0 -0.34375 0 -0.4375q0 -1.015625 -0.46875 -1.4375q-0.640625 -0.5625 -1.90625 -0.5625q-1.171875 0 -1.734375 0.40625q-0.5625 0.40625 -0.828125 1.46875l-1.640625 -0.234375q0.234375 -1.046875 0.734375 -1.6875q0.515625 -0.640625 1.46875 -0.984375q0.96875 -0.359375 2.25 -0.359375q1.265625 0 2.046875 0.296875q0.78125 0.296875 1.15625 0.75q0.375 0.453125 0.515625 1.140625q0.09375 0.421875 0.09375 1.53125l0 2.234375q0 2.328125 0.09375 2.953125q0.109375 0.609375 0.4375 1.171875l-1.75 0q-0.265625 -0.515625 -0.328125 -1.21875zm-0.140625 -3.71875q-0.90625 0.359375 -2.734375 0.625q-1.03125 0.140625 -1.453125 0.328125q-0.421875 0.1875 -0.65625 0.546875q-0.234375 0.359375 -0.234375 0.796875q0 0.671875 0.5 1.125q0.515625 0.4375 1.484375 0.4375q0.96875 0 1.71875 -0.421875q0.75 -0.4375 1.109375 -1.15625q0.265625 -0.578125 0.265625 -1.671875l0 -0.609375zm10.516342 1.328125l1.640625 0.21875q-0.265625 1.6875 -1.375 2.65625q-1.109375 0.953125 -2.734375 0.953125q-2.015625 0 -3.25 -1.3125q-1.21875 -1.328125 -1.21875 -3.796875q0 -1.59375 0.515625 -2.78125q0.53125 -1.203125 1.609375 -1.796875q1.09375 -0.609375 2.359375 -0.609375q1.609375 0 2.625 0.8125q1.015625 0.8125 1.3125 2.3125l-1.625 0.25q-0.234375 -1.0 -0.828125 -1.5q-0.59375 -0.5 -1.421875 -0.5q-1.265625 0 -2.0625 0.90625q-0.78125 0.90625 -0.78125 2.859375q0 1.984375 0.765625 2.890625q0.765625 0.890625 1.984375 0.890625q0.984375 0 1.640625 -0.59375q0.65625 -0.609375 0.84375 -1.859375zm2.90625 3.609375l0 -13.59375l1.671875 0l0 7.75l3.953125 -4.015625l2.15625 0l-3.765625 3.65625l4.140625 6.203125l-2.0625 0l-3.25 -5.03125l-1.171875 1.125l0 3.90625l-1.671875 0zm9.3125 3.78125l0 -13.640625l1.53125 0l0 1.28125q0.53125 -0.75 1.203125 -1.125q0.6875 -0.375 1.640625 -0.375q1.265625 0 2.234375 0.65625q0.96875 0.640625 1.453125 1.828125q0.5 1.1875 0.5 2.59375q0 1.515625 -0.546875 2.734375q-0.546875 1.203125 -1.578125 1.84375q-1.03125 0.640625 -2.171875 0.640625q-0.84375 0 -1.515625 -0.34375q-0.65625 -0.359375 -1.078125 -0.890625l0 4.796875l-1.671875 0zm1.515625 -8.65625q0 1.90625 0.765625 2.8125q0.78125 0.90625 1.875 0.90625q1.109375 0 1.890625 -0.9375q0.796875 -0.9375 0.796875 -2.921875q0 -1.875 -0.78125 -2.8125q-0.765625 -0.9375 -1.84375 -0.9375q-1.0625 0 -1.890625 1.0q-0.8125 1.0 -0.8125 2.890625zm8.844467 4.875l0 -9.859375l1.5 0l0 1.5q0.578125 -1.046875 1.0625 -1.375q0.484375 -0.34375 1.078125 -0.34375q0.84375 0 1.71875 0.546875l-0.578125 1.546875q-0.609375 -0.359375 -1.234375 -0.359375q-0.546875 0 -0.984375 0.328125q-0.421875 0.328125 -0.609375 0.90625q-0.28125 0.890625 -0.28125 1.953125l0 5.15625l-1.671875 0zm5.603302 -4.921875q0 -2.734375 1.53125 -4.0625q1.265625 -1.09375 3.09375 -1.09375q2.03125 0 3.3125 1.34375q1.296875 1.328125 1.296875 3.671875q0 1.90625 -0.578125 3.0q-0.5625 1.078125 -1.65625 1.6875q-1.078125 0.59375 -2.375 0.59375q-2.0625 0 -3.34375 -1.328125q-1.28125 -1.328125 -1.28125 -3.8125zm1.71875 0q0 1.890625 0.828125 2.828125q0.828125 0.9375 2.078125 0.9375q1.25 0 2.0625 -0.9375q0.828125 -0.953125 0.828125 -2.890625q0 -1.828125 -0.828125 -2.765625q-0.828125 -0.9375 -2.0625 -0.9375q-1.25 0 -2.078125 0.9375q-0.828125 0.9375 -0.828125 2.828125zm9.281967 8.703125l0 -13.640625l1.53125 0l0 1.28125q0.53125 -0.75 1.203125 -1.125q0.6875 -0.375 1.640625 -0.375q1.265625 0 2.234375 0.65625q0.96875 0.640625 1.453125 1.828125q0.5 1.1875 0.5 2.59375q0 1.515625 -0.546875 2.734375q-0.546875 1.203125 -1.578125 1.84375q-1.03125 0.640625 -2.171875 0.640625q-0.84375 0 -1.515625 -0.34375q-0.65625 -0.359375 -1.078125 -0.890625l0 4.796875l-1.671875 0zm1.515625 -8.65625q0 1.90625 0.765625 2.8125q0.78125 0.90625 1.875 0.90625q1.109375 0 1.890625 -0.9375q0.796875 -0.9375 0.796875 -2.921875q0 -1.875 -0.78125 -2.8125q-0.765625 -0.9375 -1.84375 -0.9375q-1.0625 0 -1.890625 1.0q-0.8125 1.0 -0.8125 2.890625zm15.297592 3.65625q-0.9375 0.796875 -1.796875 1.125q-0.859375 0.3125 -1.84375 0.3125q-1.609375 0 -2.484375 -0.78125q-0.875 -0.796875 -0.875 -2.03125q0 -0.734375 0.328125 -1.328125q0.328125 -0.59375 0.859375 -0.953125q0.53125 -0.359375 1.203125 -0.546875q0.5 -0.140625 1.484375 -0.25q2.03125 -0.25 2.984375 -0.578125q0 -0.34375 0 -0.4375q0 -1.015625 -0.46875 -1.4375q-0.640625 -0.5625 -1.90625 -0.5625q-1.171875 0 -1.734375 0.40625q-0.5625 0.40625 -0.828125 1.46875l-1.640625 -0.234375q0.234375 -1.046875 0.734375 -1.6875q0.515625 -0.640625 1.46875 -0.984375q0.96875 -0.359375 2.25 -0.359375q1.265625 0 2.046875 0.296875q0.78125 0.296875 1.15625 0.75q0.375 0.453125 0.515625 1.140625q0.09375 0.421875 0.09375 1.53125l0 2.234375q0 2.328125 0.09375 2.953125q0.109375 0.609375 0.4375 1.171875l-1.75 0q-0.265625 -0.515625 -0.328125 -1.21875zm-0.140625 -3.71875q-0.90625 0.359375 -2.734375 0.625q-1.03125 0.140625 -1.453125 0.328125q-0.421875 0.1875 -0.65625 0.546875q-0.234375 0.359375 -0.234375 0.796875q0 0.671875 0.5 1.125q0.515625 0.4375 1.484375 0.4375q0.96875 0 1.71875 -0.421875q0.75 -0.4375 1.109375 -1.15625q0.265625 -0.578125 0.265625 -1.671875l0 -0.609375zm3.7819672 5.75l1.609375 0.25q0.109375 0.75 0.578125 1.09375q0.609375 0.453125 1.6875 0.453125q1.171875 0 1.796875 -0.46875q0.625 -0.453125 0.859375 -1.28125q0.125 -0.515625 0.109375 -2.15625q-1.09375 1.296875 -2.71875 1.296875q-2.03125 0 -3.15625 -1.46875q-1.109375 -1.46875 -1.109375 -3.515625q0 -1.40625 0.515625 -2.59375q0.515625 -1.203125 1.484375 -1.84375q0.96875 -0.65625 2.265625 -0.65625q1.75 0 2.875 1.40625l0 -1.1875l1.546875 0l0 8.515625q0 2.3125 -0.46875 3.265625q-0.46875 0.96875 -1.484375 1.515625q-1.015625 0.5625 -2.5 0.5625q-1.765625 0 -2.859375 -0.796875q-1.078125 -0.796875 -1.03125 -2.390625zm1.375 -5.921875q0 1.953125 0.765625 2.84375q0.78125 0.890625 1.9375 0.890625q1.140625 0 1.921875 -0.890625q0.78125 -0.890625 0.78125 -2.78125q0 -1.8125 -0.8125 -2.71875q-0.796875 -0.921875 -1.921875 -0.921875q-1.109375 0 -1.890625 0.90625q-0.78125 0.890625 -0.78125 2.671875zm15.735092 3.890625q-0.9375 0.796875 -1.796875 1.125q-0.859375 0.3125 -1.84375 0.3125q-1.609375 0 -2.484375 -0.78125q-0.875 -0.796875 -0.875 -2.03125q0 -0.734375 0.328125 -1.328125q0.328125 -0.59375 0.859375 -0.953125q0.53125 -0.359375 1.203125 -0.546875q0.5 -0.140625 1.484375 -0.25q2.03125 -0.25 2.984375 -0.578125q0 -0.34375 0 -0.4375q0 -1.015625 -0.46875 -1.4375q-0.640625 -0.5625 -1.90625 -0.5625q-1.171875 0 -1.734375 0.40625q-0.5625 0.40625 -0.828125 1.46875l-1.640625 -0.234375q0.234375 -1.046875 0.734375 -1.6875q0.515625 -0.640625 1.46875 -0.984375q0.96875 -0.359375 2.25 -0.359375q1.265625 0 2.046875 0.296875q0.78125 0.296875 1.15625 0.75q0.375 0.453125 0.515625 1.140625q0.09375 0.421875 0.09375 1.53125l0 2.234375q0 2.328125 0.09375 2.953125q0.109375 0.609375 0.4375 1.171875l-1.75 0q-0.265625 -0.515625 -0.328125 -1.21875zm-0.140625 -3.71875q-0.90625 0.359375 -2.734375 0.625q-1.03125 0.140625 -1.453125 0.328125q-0.421875 0.1875 -0.65625 0.546875q-0.234375 0.359375 -0.234375 0.796875q0 0.671875 0.5 1.125q0.515625 0.4375 1.484375 0.4375q0.96875 0 1.71875 -0.421875q0.75 -0.4375 1.109375 -1.15625q0.265625 -0.578125 0.265625 -1.671875l0 -0.609375zm7.735092 3.4375l0.234375 1.484375q-0.703125 0.140625 -1.265625 0.140625q-0.90625 0 -1.40625 -0.28125q-0.5 -0.296875 -0.703125 -0.75q-0.203125 -0.46875 -0.203125 -1.984375l0 -5.65625l-1.234375 0l0 -1.3125l1.234375 0l0 -2.4375l1.65625 -1.0l0 3.4375l1.6875 0l0 1.3125l-1.6875 0l0 5.75q0 0.71875 0.078125 0.921875q0.09375 0.203125 0.296875 0.328125q0.203125 0.125 0.578125 0.125q0.265625 0 0.734375 -0.078125zm1.5426788 -10.1875l0 -1.90625l1.671875 0l0 1.90625l-1.671875 0zm0 11.6875l0 -9.859375l1.671875 0l0 9.859375l-1.671875 0zm3.504181 -4.921875q0 -2.734375 1.53125 -4.0625q1.265625 -1.09375 3.09375 -1.09375q2.03125 0 3.3125 1.34375q1.296875 1.328125 1.296875 3.671875q0 1.90625 -0.578125 3.0q-0.5625 1.078125 -1.65625 1.6875q-1.078125 0.59375 -2.375 0.59375q-2.0625 0 -3.34375 -1.328125q-1.28125 -1.328125 -1.28125 -3.8125zm1.71875 0q0 1.890625 0.828125 2.828125q0.828125 0.9375 2.078125 0.9375q1.25 0 2.0625 -0.9375q0.828125 -0.953125 0.828125 -2.890625q0 -1.828125 -0.828125 -2.765625q-0.828125 -0.9375 -2.0625 -0.9375q-1.25 0 -2.078125 0.9375q-0.828125 0.9375 -0.828125 2.828125zm9.281982 4.921875l0 -9.859375l1.5 0l0 1.40625q1.09375 -1.625 3.140625 -1.625q0.890625 0 1.640625 0.328125q0.75 0.3125 1.109375 0.84375q0.375 0.515625 0.53125 1.21875q0.09375 0.46875 0.09375 1.625l0 6.0625l-1.671875 0l0 -6.0q0 -1.015625 -0.203125 -1.515625q-0.1875 -0.515625 -0.6875 -0.8125q-0.5 -0.296875 -1.171875 -0.296875q-1.0625 0 -1.84375 0.671875q-0.765625 0.671875 -0.765625 2.578125l0 5.375l-1.671875 0z" fill-rule="nonzero"></path><path fill="#000000" fill-opacity="0.0" d="m207.38583 14.389764l1.0078735 64.125984" fill-rule="evenodd"></path><path stroke="#000000" stroke-width="1.0" stroke-linejoin="round" stroke-linecap="butt" d="m207.38583 14.389764l0.9135895 58.12673" fill-rule="evenodd"></path><path fill="#000000" stroke="#000000" stroke-width="1.0" stroke-linecap="butt" d="m206.64789 72.54245l1.7228394 4.511574l1.5802155 -4.563492z" fill-rule="evenodd"></path><path fill="#000000" fill-opacity="0.0" d="m208.3937 107.649605l-9.1653595 59.37008" fill-rule="evenodd"></path><path stroke="#000000" stroke-width="1.0" stroke-linejoin="round" stroke-linecap="butt" d="m208.3937 107.649605l-8.249939 53.440315" fill-rule="evenodd"></path><path fill="#000000" stroke="#000000" stroke-width="1.0" stroke-linecap="butt" d="m198.51137 160.83792l0.9400177 4.736969l2.324768 -4.232956z" fill-rule="evenodd"></path><path fill="#000000" fill-opacity="0.0" d="m208.3937 107.649605l51.433075 62.866142" fill-rule="evenodd"></path><path stroke="#000000" stroke-width="1.0" stroke-linejoin="round" stroke-linecap="butt" d="m208.3937 107.649605l47.63376 58.222298" fill-rule="evenodd"></path><path fill="#000000" stroke="#000000" stroke-width="1.0" stroke-linecap="butt" d="m254.74907 166.9178l4.151993 2.4664764l-1.5951843 -4.5582886z" fill-rule="evenodd"></path><path fill="#000000" fill-opacity="0.0" d="m208.3937 107.649605l23.464554 45.385826" fill-rule="evenodd"></path><path stroke="#000000" stroke-width="1.0" stroke-linejoin="round" stroke-linecap="butt" d="m208.3937 107.649605l20.70903 40.056007" fill-rule="evenodd"></path><path fill="#000000" stroke="#000000" stroke-width="1.0" stroke-linecap="butt" d="m227.6355 148.46417l3.5513763 3.272644l-0.6168976 -4.7897797z" fill-rule="evenodd"></path><path fill="#000000" fill-opacity="0.0" d="m208.3937 107.649605l23.464554 86.14173" fill-rule="evenodd"></path><path stroke="#000000" stroke-width="1.0" stroke-linejoin="round" stroke-linecap="butt" d="m208.3937 107.649605l21.88765 80.35267" fill-rule="evenodd"></path><path fill="#000000" stroke="#000000" stroke-width="1.0" stroke-linecap="butt" d="m228.68768 188.43637l2.7863617 3.944458l0.40097046 -4.812668z" fill-rule="evenodd"></path><path fill="#000000" fill-opacity="0.0" d="m208.3937 107.649605l-28.97638 91.9685" fill-rule="evenodd"></path><path stroke="#000000" stroke-width="1.0" stroke-linejoin="round" stroke-linecap="butt" d="m208.3937 107.649605l-27.173355 86.24581" fill-rule="evenodd"></path><path fill="#000000" stroke="#000000" stroke-width="1.0" stroke-linecap="butt" d="m179.64497 193.39908l0.21165466 4.824692l2.9391174 -3.8319855z" fill-rule="evenodd"></path><path fill="#cfe2f3" d="m887.78217 342.01312l44.86615 0l0 -10.763794l21.527527 21.527588l-21.527527 21.527557l0 -10.763794l-44.86615 0z" fill-rule="evenodd"></path><path stroke="#000000" stroke-width="1.0" stroke-linejoin="round" stroke-linecap="butt" d="m887.78217 342.01312l44.86615 0l0 -10.763794l21.527527 21.527588l-21.527527 21.527557l0 -10.763794l-44.86615 0z" fill-rule="evenodd"></path><path fill="#cfe2f3" d="m774.82153 196.95303l0 0c0 -7.822006 6.3410034 -14.16301 14.163025 -14.16301l88.17792 0c3.7562256 0 7.3586426 1.4921722 10.014709 4.1482544c2.656128 2.6560822 4.1482544 6.258499 4.1482544 10.014755l0 56.65036c0 7.8220215 -6.3410034 14.163025 -14.162964 14.163025l-88.17792 0c-7.8220215 0 -14.163025 -6.3410034 -14.163025 -14.163025z" fill-rule="evenodd"></path><path stroke="#000000" stroke-width="1.0" stroke-linejoin="round" stroke-linecap="butt" d="m774.82153 196.95303l0 0c0 -7.822006 6.3410034 -14.16301 14.163025 -14.16301l88.17792 0c3.7562256 0 7.3586426 1.4921722 10.014709 4.1482544c2.656128 2.6560822 4.1482544 6.258499 4.1482544 10.014755l0 56.65036c0 7.8220215 -6.3410034 14.163025 -14.162964 14.163025l-88.17792 0c-7.8220215 0 -14.163025 -6.3410034 -14.163025 -14.163025z" fill-rule="evenodd"></path><path fill="#000000" d="m789.48517 221.19821l5.234375 -13.59375l1.9375 0l5.5625 13.59375l-2.046875 0l-1.59375 -4.125l-5.6875 0l-1.484375 4.125l-1.921875 0zm3.921875 -5.578125l4.609375 0l-1.40625 -3.78125q-0.65625 -1.703125 -0.96875 -2.8125q-0.265625 1.3125 -0.734375 2.59375l-1.5 4.0zm9.8029785 -6.078125l0 -1.9375l1.65625 0l0 1.9375l-1.65625 0zm-2.125 15.484375l0.3125 -1.421875q0.5 0.125 0.796875 0.125q0.515625 0 0.765625 -0.34375q0.25 -0.328125 0.25 -1.6875l0 -10.359375l1.65625 0l0 10.390625q0 1.828125 -0.46875 2.546875q-0.59375 0.921875 -2.0 0.921875q-0.671875 0 -1.3125 -0.171875zm12.7229 -3.828125l0 -1.453125q-1.140625 1.671875 -3.125 1.671875q-0.859375 0 -1.625 -0.328125q-0.75 -0.34375 -1.125 -0.84375q-0.359375 -0.5 -0.515625 -1.234375q-0.09375 -0.5 -0.09375 -1.5625l0 -6.109375l1.671875 0l0 5.46875q0 1.3125 0.09375 1.765625q0.15625 0.65625 0.671875 1.03125q0.515625 0.375 1.265625 0.375q0.75 0 1.40625 -0.375q0.65625 -0.390625 0.921875 -1.046875q0.28125 -0.671875 0.28125 -1.9375l0 -5.28125l1.671875 0l0 9.859375l-1.5 0zm3.2507324 -2.9375l1.65625 -0.265625q0.140625 1.0 0.765625 1.53125q0.640625 0.515625 1.78125 0.515625q1.15625 0 1.703125 -0.46875q0.5625 -0.46875 0.5625 -1.09375q0 -0.5625 -0.484375 -0.890625q-0.34375 -0.21875 -1.703125 -0.5625q-1.84375 -0.46875 -2.5625 -0.796875q-0.703125 -0.34375 -1.078125 -0.9375q-0.359375 -0.609375 -0.359375 -1.328125q0 -0.65625 0.296875 -1.21875q0.3125 -0.5625 0.828125 -0.9375q0.390625 -0.28125 1.0625 -0.484375q0.671875 -0.203125 1.4375 -0.203125q1.171875 0 2.046875 0.34375q0.875 0.328125 1.28125 0.90625q0.421875 0.5625 0.578125 1.515625l-1.625 0.21875q-0.109375 -0.75 -0.65625 -1.171875q-0.53125 -0.4375 -1.5 -0.4375q-1.15625 0 -1.640625 0.390625q-0.484375 0.375 -0.484375 0.875q0 0.328125 0.203125 0.59375q0.203125 0.265625 0.640625 0.4375q0.25 0.09375 1.46875 0.4375q1.765625 0.46875 2.46875 0.765625q0.703125 0.296875 1.09375 0.875q0.40625 0.578125 0.40625 1.4375q0 0.828125 -0.484375 1.578125q-0.484375 0.734375 -1.40625 1.140625q-0.921875 0.390625 -2.078125 0.390625q-1.921875 0 -2.9375 -0.796875q-1.0 -0.796875 -1.28125 -2.359375zm13.65625 1.4375l0.234375 1.484375q-0.703125 0.140625 -1.265625 0.140625q-0.90625 0 -1.40625 -0.28125q-0.5 -0.296875 -0.703125 -0.75q-0.203125 -0.46875 -0.203125 -1.984375l0 -5.65625l-1.234375 0l0 -1.3125l1.234375 0l0 -2.4375l1.65625 -1.0l0 3.4375l1.6875 0l0 1.3125l-1.6875 0l0 5.75q0 0.71875 0.078125 0.921875q0.09375 0.203125 0.296875 0.328125q0.203125 0.125 0.578125 0.125q0.265625 0 0.734375 -0.078125zm8.277039 -1.671875l1.71875 0.21875q-0.40625 1.5 -1.515625 2.34375q-1.09375 0.828125 -2.8125 0.828125q-2.15625 0 -3.421875 -1.328125q-1.265625 -1.328125 -1.265625 -3.734375q0 -2.484375 1.265625 -3.859375q1.28125 -1.375 3.328125 -1.375q1.984375 0 3.234375 1.34375q1.25 1.34375 1.25 3.796875q0 0.140625 -0.015625 0.4375l-7.34375 0q0.09375 1.625 0.921875 2.484375q0.828125 0.859375 2.0625 0.859375q0.90625 0 1.546875 -0.46875q0.65625 -0.484375 1.046875 -1.546875zm-5.484375 -2.703125l5.5 0q-0.109375 -1.234375 -0.625 -1.859375q-0.796875 -0.96875 -2.078125 -0.96875q-1.140625 0 -1.9375 0.78125q-0.78125 0.765625 -0.859375 2.046875zm20.684082 5.875l0 -1.25q-0.9375 1.46875 -2.75 1.46875q-1.171875 0 -2.171875 -0.640625q-0.984375 -0.65625 -1.53125 -1.8125q-0.53125 -1.171875 -0.53125 -2.6875q0 -1.46875 0.484375 -2.671875q0.5 -1.203125 1.46875 -1.84375q0.984375 -0.640625 2.203125 -0.640625q0.890625 0 1.578125 0.375q0.703125 0.375 1.140625 0.984375l0 -4.875l1.65625 0l0 13.59375l-1.546875 0zm-5.28125 -4.921875q0 1.890625 0.796875 2.828125q0.8125 0.9375 1.890625 0.9375q1.09375 0 1.859375 -0.890625q0.765625 -0.890625 0.765625 -2.734375q0 -2.015625 -0.78125 -2.953125q-0.78125 -0.953125 -1.921875 -0.953125q-1.109375 0 -1.859375 0.90625q-0.75 0.90625 -0.75 2.859375zm8.641296 0q0 -2.734375 1.53125 -4.0625q1.265625 -1.09375 3.09375 -1.09375q2.03125 0 3.3125 1.34375q1.296875 1.328125 1.296875 3.671875q0 1.90625 -0.578125 3.0q-0.5625 1.078125 -1.65625 1.6875q-1.078125 0.59375 -2.375 0.59375q-2.0625 0 -3.34375 -1.328125q-1.28125 -1.328125 -1.28125 -3.8125zm1.71875 0q0 1.890625 0.828125 2.828125q0.828125 0.9375 2.078125 0.9375q1.25 0 2.0625 -0.9375q0.828125 -0.953125 0.828125 -2.890625q0 -1.828125 -0.828125 -2.765625q-0.828125 -0.9375 -2.0625 -0.9375q-1.25 0 -2.078125 0.9375q-0.828125 0.9375 -0.828125 2.828125zm8.610107 1.984375l1.65625 -0.265625q0.140625 1.0 0.765625 1.53125q0.640625 0.515625 1.78125 0.515625q1.15625 0 1.703125 -0.46875q0.5625 -0.46875 0.5625 -1.09375q0 -0.5625 -0.484375 -0.890625q-0.34375 -0.21875 -1.703125 -0.5625q-1.84375 -0.46875 -2.5625 -0.796875q-0.703125 -0.34375 -1.078125 -0.9375q-0.359375 -0.609375 -0.359375 -1.328125q0 -0.65625 0.296875 -1.21875q0.3125 -0.5625 0.828125 -0.9375q0.390625 -0.28125 1.0625 -0.484375q0.671875 -0.203125 1.4375 -0.203125q1.171875 0 2.046875 0.34375q0.875 0.328125 1.28125 0.90625q0.421875 0.5625 0.578125 1.515625l-1.625 0.21875q-0.109375 -0.75 -0.65625 -1.171875q-0.53125 -0.4375 -1.5 -0.4375q-1.15625 0 -1.640625 0.390625q-0.484375 0.375 -0.484375 0.875q0 0.328125 0.203125 0.59375q0.203125 0.265625 0.640625 0.4375q0.25 0.09375 1.46875 0.4375q1.765625 0.46875 2.46875 0.765625q0.703125 0.296875 1.09375 0.875q0.40625 0.578125 0.40625 1.4375q0 0.828125 -0.484375 1.578125q-0.484375 0.734375 -1.40625 1.140625q-0.921875 0.390625 -2.078125 0.390625q-1.921875 0 -2.9375 -0.796875q-1.0 -0.796875 -1.28125 -2.359375z" fill-rule="nonzero"></path><path fill="#000000" d="m809.43176 246.97946l0 -13.640625l1.53125 0l0 1.28125q0.53125 -0.75 1.203125 -1.125q0.6875 -0.375 1.640625 -0.375q1.265625 0 2.234375 0.65625q0.96875 0.640625 1.453125 1.828125q0.5 1.1875 0.5 2.59375q0 1.515625 -0.546875 2.734375q-0.546875 1.203125 -1.578125 1.84375q-1.03125 0.640625 -2.171875 0.640625q-0.84375 0 -1.515625 -0.34375q-0.65625 -0.359375 -1.078125 -0.890625l0 4.796875l-1.671875 0zm1.515625 -8.65625q0 1.90625 0.765625 2.8125q0.78125 0.90625 1.875 0.90625q1.109375 0 1.890625 -0.9375q0.796875 -0.9375 0.796875 -2.921875q0 -1.875 -0.78125 -2.8125q-0.765625 -0.9375 -1.84375 -0.9375q-1.0625 0 -1.890625 1.0q-0.8125 1.0 -0.8125 2.890625zm15.610107 1.703125l1.71875 0.21875q-0.40625 1.5 -1.515625 2.34375q-1.09375 0.828125 -2.8125 0.828125q-2.15625 0 -3.421875 -1.328125q-1.265625 -1.328125 -1.265625 -3.734375q0 -2.484375 1.265625 -3.859375q1.28125 -1.375 3.328125 -1.375q1.984375 0 3.234375 1.34375q1.25 1.34375 1.25 3.796875q0 0.140625 -0.015625 0.4375l-7.34375 0q0.09375 1.625 0.921875 2.484375q0.828125 0.859375 2.0625 0.859375q0.90625 0 1.546875 -0.46875q0.65625 -0.484375 1.046875 -1.546875zm-5.484375 -2.703125l5.5 0q-0.109375 -1.234375 -0.625 -1.859375q-0.796875 -0.96875 -2.078125 -0.96875q-1.140625 0 -1.9375 0.78125q-0.78125 0.765625 -0.859375 2.046875zm8.438232 2.9375l1.65625 -0.265625q0.140625 1.0 0.765625 1.53125q0.640625 0.515625 1.78125 0.515625q1.15625 0 1.703125 -0.46875q0.5625 -0.46875 0.5625 -1.09375q0 -0.5625 -0.484375 -0.890625q-0.34375 -0.21875 -1.703125 -0.5625q-1.84375 -0.46875 -2.5625 -0.796875q-0.703125 -0.34375 -1.078125 -0.9375q-0.359375 -0.609375 -0.359375 -1.328125q0 -0.65625 0.296875 -1.21875q0.3125 -0.5625 0.828125 -0.9375q0.390625 -0.28125 1.0625 -0.484375q0.671875 -0.203125 1.4375 -0.203125q1.171875 0 2.046875 0.34375q0.875 0.328125 1.28125 0.90625q0.421875 0.5625 0.578125 1.515625l-1.625 0.21875q-0.109375 -0.75 -0.65625 -1.171875q-0.53125 -0.4375 -1.5 -0.4375q-1.15625 0 -1.640625 0.390625q-0.484375 0.375 -0.484375 0.875q0 0.328125 0.203125 0.59375q0.203125 0.265625 0.640625 0.4375q0.25 0.09375 1.46875 0.4375q1.765625 0.46875 2.46875 0.765625q0.703125 0.296875 1.09375 0.875q0.40625 0.578125 0.40625 1.4375q0 0.828125 -0.484375 1.578125q-0.484375 0.734375 -1.40625 1.140625q-0.921875 0.390625 -2.078125 0.390625q-1.921875 0 -2.9375 -0.796875q-1.0 -0.796875 -1.28125 -2.359375zm9.375 -1.984375q0 -2.734375 1.53125 -4.0625q1.265625 -1.09375 3.09375 -1.09375q2.03125 0 3.3125 1.34375q1.296875 1.328125 1.296875 3.671875q0 1.90625 -0.578125 3.0q-0.5625 1.078125 -1.65625 1.6875q-1.078125 0.59375 -2.375 0.59375q-2.0625 0 -3.34375 -1.328125q-1.28125 -1.328125 -1.28125 -3.8125zm1.71875 0q0 1.890625 0.828125 2.828125q0.828125 0.9375 2.078125 0.9375q1.25 0 2.0625 -0.9375q0.828125 -0.953125 0.828125 -2.890625q0 -1.828125 -0.828125 -2.765625q-0.828125 -0.9375 -2.0625 -0.9375q-1.25 0 -2.078125 0.9375q-0.828125 0.9375 -0.828125 2.828125zm8.610107 1.984375l1.65625 -0.265625q0.140625 1.0 0.765625 1.53125q0.640625 0.515625 1.78125 0.515625q1.15625 0 1.703125 -0.46875q0.5625 -0.46875 0.5625 -1.09375q0 -0.5625 -0.484375 -0.890625q-0.34375 -0.21875 -1.703125 -0.5625q-1.84375 -0.46875 -2.5625 -0.796875q-0.703125 -0.34375 -1.078125 -0.9375q-0.359375 -0.609375 -0.359375 -1.328125q0 -0.65625 0.296875 -1.21875q0.3125 -0.5625 0.828125 -0.9375q0.390625 -0.28125 1.0625 -0.484375q0.671875 -0.203125 1.4375 -0.203125q1.171875 0 2.046875 0.34375q0.875 0.328125 1.28125 0.90625q0.421875 0.5625 0.578125 1.515625l-1.625 0.21875q-0.109375 -0.75 -0.65625 -1.171875q-0.53125 -0.4375 -1.5 -0.4375q-1.15625 0 -1.640625 0.390625q-0.484375 0.375 -0.484375 0.875q0 0.328125 0.203125 0.59375q0.203125 0.265625 0.640625 0.4375q0.25 0.09375 1.46875 0.4375q1.765625 0.46875 2.46875 0.765625q0.703125 0.296875 1.09375 0.875q0.40625 0.578125 0.40625 1.4375q0 0.828125 -0.484375 1.578125q-0.484375 0.734375 -1.40625 1.140625q-0.921875 0.390625 -2.078125 0.390625q-1.921875 0 -2.9375 -0.796875q-1.0 -0.796875 -1.28125 -2.359375z" fill-rule="nonzero"></path><path fill="#000000" fill-opacity="0.0" d="m833.0735 307.82153l0 -40.06299" fill-rule="evenodd"></path><path stroke="#000000" stroke-width="1.0" stroke-linejoin="round" stroke-linecap="butt" d="m833.0735 307.82153l0 -40.06299" fill-rule="evenodd"></path><path fill="#000000" fill-opacity="0.0" d="m833.0105 13.215223l0.06298828 169.5748" fill-rule="evenodd"></path><path stroke="#000000" stroke-width="1.0" stroke-linejoin="round" stroke-linecap="butt" d="m833.0105 13.215223l0.06298828 169.5748" fill-rule="evenodd"></path><path fill="#cfe2f3" d="m90.267715 661.14185l219.03981 0l0 -13.385925l59.322388 27.086609l-59.322388 27.086609l0 -13.385925l-219.03981 0z" fill-rule="evenodd"></path><path stroke="#000000" stroke-width="1.0" stroke-linejoin="round" stroke-linecap="butt" d="m90.267715 661.14185l219.03981 0l0 -13.385925l59.322388 27.086609l-59.322388 27.086609l0 -13.385925l-219.03981 0z" fill-rule="evenodd"></path><path fill="#000000" d="m184.41022 677.3875l1.6875 -0.140625q0.125 1.015625 0.5625 1.671875q0.4375 0.65625 1.359375 1.0625q0.9375 0.40625 2.09375 0.40625q1.03125 0 1.8125 -0.3125q0.796875 -0.3125 1.1875 -0.84375q0.390625 -0.53125 0.390625 -1.15625q0 -0.640625 -0.375 -1.109375q-0.375 -0.484375 -1.234375 -0.8125q-0.546875 -0.21875 -2.421875 -0.65625q-1.875 -0.453125 -2.625 -0.859375q-0.96875 -0.515625 -1.453125 -1.265625q-0.46875 -0.75 -0.46875 -1.6875q0 -1.03125 0.578125 -1.921875q0.59375 -0.90625 1.703125 -1.359375q1.125 -0.46875 2.5 -0.46875q1.515625 0 2.671875 0.484375q1.15625 0.484375 1.765625 1.4375q0.625 0.9375 0.671875 2.140625l-1.71875 0.125q-0.140625 -1.28125 -0.953125 -1.9375q-0.796875 -0.671875 -2.359375 -0.671875q-1.625 0 -2.375 0.609375q-0.75 0.59375 -0.75 1.4375q0 0.734375 0.53125 1.203125q0.515625 0.46875 2.703125 0.96875q2.203125 0.5 3.015625 0.875q1.1875 0.546875 1.75 1.390625q0.578125 0.828125 0.578125 1.921875q0 1.09375 -0.625 2.0625q-0.625 0.953125 -1.796875 1.484375q-1.15625 0.53125 -2.609375 0.53125q-1.84375 0 -3.09375 -0.53125q-1.25 -0.546875 -1.96875 -1.625q-0.703125 -1.078125 -0.734375 -2.453125zm12.849823 -7.3125l0 -1.90625l1.671875 0l0 1.90625l-1.671875 0zm0 11.6875l0 -9.859375l1.671875 0l0 9.859375l-1.671875 0zm3.8323212 0.8125l1.609375 0.25q0.109375 0.75 0.578125 1.09375q0.609375 0.453125 1.6875 0.453125q1.171875 0 1.796875 -0.46875q0.625 -0.453125 0.859375 -1.28125q0.125 -0.515625 0.109375 -2.15625q-1.09375 1.296875 -2.71875 1.296875q-2.03125 0 -3.15625 -1.46875q-1.109375 -1.46875 -1.109375 -3.515625q0 -1.40625 0.515625 -2.59375q0.515625 -1.203125 1.484375 -1.84375q0.96875 -0.65625 2.265625 -0.65625q1.75 0 2.875 1.40625l0 -1.1875l1.546875 0l0 8.515625q0 2.3125 -0.46875 3.265625q-0.46875 0.96875 -1.484375 1.515625q-1.015625 0.5625 -2.5 0.5625q-1.765625 0 -2.859375 -0.796875q-1.078125 -0.796875 -1.03125 -2.390625zm1.375 -5.921875q0 1.953125 0.765625 2.84375q0.78125 0.890625 1.9375 0.890625q1.140625 0 1.921875 -0.890625q0.78125 -0.890625 0.78125 -2.78125q0 -1.8125 -0.8125 -2.71875q-0.796875 -0.921875 -1.921875 -0.921875q-1.109375 0 -1.890625 0.90625q-0.78125 0.890625 -0.78125 2.671875zm9.297592 5.109375l0 -9.859375l1.5 0l0 1.390625q0.453125 -0.71875 1.21875 -1.15625q0.78125 -0.453125 1.765625 -0.453125q1.09375 0 1.796875 0.453125q0.703125 0.453125 0.984375 1.28125q1.171875 -1.734375 3.046875 -1.734375q1.46875 0 2.25 0.8125q0.796875 0.8125 0.796875 2.5l0 6.765625l-1.671875 0l0 -6.203125q0 -1.0 -0.15625 -1.4375q-0.15625 -0.453125 -0.59375 -0.71875q-0.421875 -0.265625 -1.0 -0.265625q-1.03125 0 -1.71875 0.6875q-0.6875 0.6875 -0.6875 2.21875l0 5.71875l-1.671875 0l0 -6.40625q0 -1.109375 -0.40625 -1.65625q-0.40625 -0.5625 -1.34375 -0.5625q-0.703125 0 -1.3125 0.375q-0.59375 0.359375 -0.859375 1.078125q-0.265625 0.71875 -0.265625 2.0625l0 5.109375l-1.671875 0zm14.915802 -4.921875q0 -2.734375 1.53125 -4.0625q1.265625 -1.09375 3.09375 -1.09375q2.03125 0 3.3125 1.34375q1.296875 1.328125 1.296875 3.671875q0 1.90625 -0.578125 3.0q-0.5625 1.078125 -1.65625 1.6875q-1.078125 0.59375 -2.375 0.59375q-2.0625 0 -3.34375 -1.328125q-1.28125 -1.328125 -1.28125 -3.8125zm1.71875 0q0 1.890625 0.828125 2.828125q0.828125 0.9375 2.078125 0.9375q1.25 0 2.0625 -0.9375q0.828125 -0.953125 0.828125 -2.890625q0 -1.828125 -0.828125 -2.765625q-0.828125 -0.9375 -2.0625 -0.9375q-1.25 0 -2.078125 0.9375q-0.828125 0.9375 -0.828125 2.828125zm1.71875 -6.15625l1.234375 -2.59375l2.1875 0l-2.046875 2.59375l-1.375 0zm7.578842 -0.609375l0 -1.90625l1.671875 0l0 1.90625l-1.671875 0zm0 11.6875l0 -9.859375l1.671875 0l0 9.859375l-1.671875 0zm10.519821 0l0 -1.25q-0.9375 1.46875 -2.75 1.46875q-1.171875 0 -2.171875 -0.640625q-0.984375 -0.65625 -1.53125 -1.8125q-0.53125 -1.171875 -0.53125 -2.6875q0 -1.46875 0.484375 -2.671875q0.5 -1.203125 1.46875 -1.84375q0.984375 -0.640625 2.203125 -0.640625q0.890625 0 1.578125 0.375q0.703125 0.375 1.140625 0.984375l0 -4.875l1.65625 0l0 13.59375l-1.546875 0zm-5.28125 -4.921875q0 1.890625 0.796875 2.828125q0.8125 0.9375 1.890625 0.9375q1.09375 0 1.859375 -0.890625q0.765625 -0.890625 0.765625 -2.734375q0 -2.015625 -0.78125 -2.953125q-0.78125 -0.953125 -1.921875 -0.953125q-1.109375 0 -1.859375 0.90625q-0.75 0.90625 -0.75 2.859375zm16.016357 1.75l1.71875 0.21875q-0.40625 1.5 -1.515625 2.34375q-1.09375 0.828125 -2.8125 0.828125q-2.1562653 0 -3.4218903 -1.328125q-1.265625 -1.328125 -1.265625 -3.734375q0 -2.484375 1.265625 -3.859375q1.28125 -1.375 3.3281403 -1.375q1.984375 0 3.234375 1.34375q1.25 1.34375 1.25 3.796875q0 0.140625 -0.015625 0.4375l-7.3437653 0q0.09375 1.625 0.921875 2.484375q0.828125 0.859375 2.0625153 0.859375q0.90625 0 1.546875 -0.46875q0.65625 -0.484375 1.046875 -1.546875zm-5.4843903 -2.703125l5.5000153 0q-0.109375 -1.234375 -0.625 -1.859375q-0.796875 -0.96875 -2.078125 -0.96875q-1.1406403 0 -1.9375153 0.78125q-0.78125 0.765625 -0.859375 2.046875z" fill-rule="nonzero"></path><path fill="#000000" fill-opacity="0.0" d="m182.91339 649.08136l124.66141 0l0 29.13385l-124.66141 0z" fill-rule="evenodd"></path><path fill="#000000" fill-opacity="0.0" d="m208.3937 107.649605l4.8188934 116.44094" fill-rule="evenodd"></path><path stroke="#000000" stroke-width="1.0" stroke-linejoin="round" stroke-linecap="butt" d="m208.3937 107.649605l4.570801 110.44607" fill-rule="evenodd"></path><path fill="#000000" stroke="#000000" stroke-width="1.0" stroke-linecap="butt" d="m211.31418 218.16399l1.8379669 4.465912l1.462677 -4.6025085z" fill-rule="evenodd"></path><path fill="#000000" fill-opacity="0.0" d="m805.0525 605.0656l116.50397 0l0 45.448853l-116.50397 0z" fill-rule="evenodd"></path><path fill="#cfe2f3" d="m646.7998 633.918l0 0c-2.8963013 -2.8962402 -2.8954468 -7.5912476 0.0018310547 -10.486511l121.53937 -121.45236c1.3913574 -1.3903503 3.2781982 -2.1712341 5.2455444 -2.170868c1.9672852 3.3569336E-4 3.8538818 0.7819214 5.244751 2.17276l20.976135 20.976166c2.8963013 2.8963013 2.8954468 7.5912476 -0.0018310547 10.486511l-121.53937 121.45239c-2.8973389 2.8952637 -7.593994 2.8944092 -10.490295 -0.0018920898z" fill-rule="evenodd"></path><path stroke="#000000" stroke-width="1.0" stroke-linejoin="round" stroke-linecap="butt" d="m646.7998 633.918l0 0c-2.8963013 -2.8962402 -2.8954468 -7.5912476 0.0018310547 -10.486511l121.53937 -121.45236c1.3913574 -1.3903503 3.2781982 -2.1712341 5.2455444 -2.170868c1.9672852 3.3569336E-4 3.8538818 0.7819214 5.244751 2.17276l20.976135 20.976166c2.8963013 2.8963013 2.8954468 7.5912476 -0.0018310547 10.486511l-121.53937 121.45239c-2.8973389 2.8952637 -7.593994 2.8944092 -10.490295 -0.0018920898z" fill-rule="evenodd"></path><path fill="#000000" d="m676.3674 619.5724l-9.612244 -9.612244l6.9630737 -6.95813l1.1269531 1.1269531l-5.6920166 5.6879883l2.9499512 2.9499512l5.3273315 -5.3234863l1.1268921 1.1269531l-5.3272705 5.3234863l3.2703857 3.2703857l5.913086 -5.9088745l1.1380005 1.1380005l-7.184143 7.179016zm8.614197 -8.608032l-6.9716187 -6.9716187l1.0610352 -1.0603027l1.060669 1.060669q-0.33135986 -1.1489258 -0.22070312 -1.7233276q0.09954834 -0.5854492 0.51953125 -1.005127q0.5968628 -0.59643555 1.602478 -0.82818604l0.6848755 1.5024414q-0.68518066 0.17663574 -1.1272583 0.6184082q-0.38684082 0.38653564 -0.46429443 0.9277954q-0.06640625 0.5302124 0.20977783 1.0715942q0.43078613 0.82855225 1.1821289 1.579834l3.645996 3.6460571l-1.1826172 1.1817627zm4.3945923 -4.3914795l-6.9716187 -6.9716187l1.0610352 -1.0603027l1.060669 1.060669q-0.33129883 -1.1488647 -0.22070312 -1.7232666q0.09954834 -0.5854492 0.51953125 -1.005188q0.5968628 -0.5963745 1.602478 -0.82818604l0.6848755 1.5024414q-0.68518066 0.17663574 -1.1272583 0.6184082q-0.38684082 0.38659668 -0.46429443 0.92785645q-0.06640625 0.5302124 0.20977783 1.0715332q0.43078613 0.82855225 1.1821289 1.579895l3.645996 3.645996l-1.1826172 1.1817627zm0.48327637 -7.440979q-1.9335327 -1.9335327 -1.7894897 -3.955017q0.12182617 -1.6680298 1.414978 -2.960205q1.4368286 -1.435791 3.293335 -1.3912964q1.8564453 0.022460938 3.513733 1.6796875q1.3479614 1.3479614 1.7124023 2.5299683q0.36444092 1.1599731 0.02166748 2.3640137q-0.34277344 1.1818848 -1.2601318 2.0986328q-1.4589233 1.4578857 -3.3043823 1.4243774q-1.845398 -0.033447266 -3.6021118 -1.7901611zm1.2157593 -1.2149048q1.336853 1.336853 2.5855713 1.4144287q1.2487183 0.07751465 2.1328735 -0.8060303q0.8842163 -0.88360596 0.7960205 -2.1207886q-0.088134766 -1.2593384 -1.4581909 -2.6293945q-1.2926636 -1.2926636 -2.5413818 -1.3701782q-1.2486572 -0.07757568 -2.1218262 0.7949829q-0.8842163 0.8835449 -0.8070679 2.131836q0.07714844 1.24823 1.4140015 2.585144zm20.829285 -8.510742l-3.4140015 -3.4140015q0.1104126 0.6628418 -0.13287354 1.4139404q-0.23217773 0.7401123 -0.7958374 1.3033447q-1.237915 1.2369995 -3.116455 1.1483154q-1.8896484 -0.09979248 -3.6132202 -1.8233643q-1.0496216 -1.0496216 -1.5134888 -2.2426758q-0.4749756 -1.2041626 -0.22058105 -2.3198242q0.26538086 -1.126709 1.0942993 -1.9550781q1.2931519 -1.2922363 3.1275024 -0.9384155l-0.93914795 -0.9390869l1.0610352 -1.0603027l9.645386 9.645386l-1.1826172 1.1817627zm-9.812378 -2.5424805q1.3479004 1.3479614 2.5855103 1.4586182q1.2266235 0.09967041 2.0113525 -0.6845093q0.7515869 -0.7510376 0.6633911 -1.9219971q-0.0881958 -1.1930542 -1.4030151 -2.5078125q-1.3810425 -1.3810425 -2.6629028 -1.513855q-1.2817993 -0.1328125 -2.055481 0.6403198q-0.77368164 0.7731323 -0.6412964 1.9661865q0.12133789 1.1820068 1.5024414 2.5630493zm14.599609 -7.586853l-1.0275269 -1.0275269q0.3753662 1.9884644 -1.0283203 3.3911133q-0.60791016 0.6074829 -1.3814697 0.916626q-0.7736206 0.28704834 -1.392395 0.1986084q-0.6077881 -0.09954834 -1.2376099 -0.5083618q-0.41986084 -0.28729248 -1.1711426 -1.0386353l-4.3200073 -4.3199463l1.1826172 -1.1817627l3.8670044 3.8669434q0.9281006 0.9281006 1.3148193 1.182251q0.57458496 0.35357666 1.2044678 0.25427246q0.6298828 -0.0993042 1.1604004 -0.62945557q0.5305176 -0.53015137 0.7295532 -1.2591553q0.18798828 -0.7401123 -0.088134766 -1.3919067q-0.27612305 -0.67388916 -1.1710815 -1.5687866l-3.734436 -3.734436l1.1826172 -1.1817627l6.9716797 6.9716187l-1.0610352 1.0603027zm6.4664917 -8.1848755q-0.09967041 1.2261353 -0.4755249 2.0656128q-0.38690186 0.8284302 -1.083252 1.524231q-1.1383667 1.1376343 -2.3097534 1.2036743q-1.1824341 0.05505371 -2.0552368 -0.81781006q-0.5192871 -0.5192871 -0.70703125 -1.1710815q-0.18774414 -0.6517334 -0.066101074 -1.2813721q0.1217041 -0.6296387 0.46435547 -1.2371216q0.25427246 -0.45288086 0.87323 -1.2260132q1.2600098 -1.6126099 1.7022095 -2.5183105q-0.24304199 -0.24310303 -0.30932617 -0.3093872q-0.7182007 -0.71813965 -1.3480835 -0.6851196q-0.8508911 0.05505371 -1.7461548 0.94970703q-0.82891846 0.8283081 -0.93951416 1.5131836q-0.11065674 0.6848755 0.4527588 1.6239014l-1.3262329 0.9939575q-0.5744629 -0.9058838 -0.6737671 -1.7123413q-0.088256836 -0.81744385 0.34283447 -1.7341919q0.43115234 -0.9389038 1.3374634 -1.8445435q0.8952637 -0.8946533 1.6577759 -1.2369385q0.76257324 -0.34228516 1.3482666 -0.2869873q0.5856323 0.055358887 1.1712646 0.44207764q0.36462402 0.23205566 1.1490479 1.0164795l1.579956 1.579956q1.6462402 1.6462402 2.15448 2.0219116q0.50823975 0.35357666 1.1381226 0.5194092l-1.237915 1.2369995q-0.55249023 -0.17687988 -1.0938721 -0.6298828zm-2.729004 -2.5301514q-0.3869629 0.89471436 -1.4922485 2.3747559q-0.6300659 0.82836914 -0.79589844 1.2591553q-0.16583252 0.43078613 -0.07745361 0.85058594q0.08831787 0.4197998 0.39764404 0.729126q0.47509766 0.47509766 1.1491699 0.44207764q0.6741333 -0.055114746 1.359375 -0.73986816q0.6852417 -0.6847534 0.91748047 -1.5132446q0.22113037 -0.83947754 -0.03289795 -1.6017456q-0.22088623 -0.5965576 -0.9942627 -1.3699341l-0.4309082 -0.4309082zm10.897034 -3.9090576l-0.88391113 -0.8838501q0.37542725 1.7012329 -0.90667725 2.9824219q-0.82891846 0.8283081 -1.9892578 1.0822144q-1.1604004 0.23175049 -2.3648071 -0.19927979q-1.2044067 -0.453125 -2.276123 -1.5248413q-1.0385742 -1.0385742 -1.5466919 -2.2316895q-0.4970703 -1.2041626 -0.2647705 -2.341919q0.24328613 -1.1488037 1.1054077 -2.010254q0.6300049 -0.62957764 1.3814697 -0.8503418q0.7625122 -0.23187256 1.5028687 -0.11022949l-3.4471436 -3.4471436l1.1715698 -1.1707153l9.612244 9.612244l-1.0941772 1.0933838zm-7.2160645 0.25280762q1.336853 1.336853 2.5634766 1.4365234q1.2376099 0.08856201 2.0002441 -0.67352295q0.77368164 -0.7730713 0.68548584 -1.9440308q-0.0881958 -1.1709595 -1.3919067 -2.4746704q-1.425293 -1.425293 -2.640808 -1.5359497q-1.2265625 -0.12176514 -2.0334473 0.6845093q-0.784729 0.7841797 -0.67437744 1.9551392q0.11029053 1.1709595 1.491333 2.552002zm10.023865 -3.0585938l-6.9716187 -6.9716797l1.0610352 -1.0602417l1.060669 1.060669q-0.33129883 -1.1489258 -0.22070312 -1.7233276q0.09954834 -0.5854492 0.51953125 -1.005127q0.5968628 -0.59643555 1.602478 -0.8282471l0.6848755 1.5025024q-0.68518066 0.17663574 -1.1272583 0.6184082q-0.38684082 0.38653564 -0.46429443 0.9277954q-0.06640625 0.5302124 0.20977783 1.0715942q0.43084717 0.82855225 1.1821289 1.579834l3.645996 3.6460571l-1.1826172 1.1817627zm8.097534 -9.814697q-0.099731445 1.2261963 -0.47558594 2.0656738q-0.38690186 0.82836914 -1.0831909 1.524231q-1.1384277 1.1375732 -2.3098145 1.2036133q-1.182373 0.05505371 -2.0552368 -0.81781006q-0.5192871 -0.5192871 -0.70703125 -1.1710205q-0.18774414 -0.65179443 -0.06604004 -1.2814331q0.12164307 -0.6296387 0.46435547 -1.2371216q0.25421143 -0.45288086 0.87316895 -1.2260132q1.2600708 -1.6126099 1.7022705 -2.5183105q-0.24310303 -0.24310303 -0.3093872 -0.3093872q-0.71813965 -0.71813965 -1.3480225 -0.6851196q-0.8508911 0.055114746 -1.7461548 0.94970703q-0.8289795 0.8283081 -0.9395752 1.5131836q-0.11065674 0.6848755 0.4527588 1.6239624l-1.3262329 0.9939575q-0.5744629 -0.9059448 -0.6737671 -1.7123413q-0.088256836 -0.8175049 0.3428955 -1.7342529q0.4310913 -0.9389038 1.3374023 -1.8445435q0.8952637 -0.8945923 1.6578369 -1.2369385q0.7625122 -0.34228516 1.3482056 -0.2869873q0.58569336 0.055358887 1.1712646 0.44207764q0.36462402 0.23205566 1.1491089 1.0165405l1.579895 1.579895q1.6462402 1.6462402 2.15448 2.0219116q0.5083008 0.35357666 1.1381226 0.5194092l-1.237854 1.2369995q-0.55249023 -0.17687988 -1.0938721 -0.6298828zm-2.729065 -2.5301514q-0.38690186 0.89471436 -1.4922485 2.3747559q-0.6300049 0.82836914 -0.7958374 1.2591553q-0.16583252 0.43078613 -0.07751465 0.85058594q0.08831787 0.4197998 0.39770508 0.729126q0.47509766 0.47509766 1.1491699 0.44207764q0.67407227 -0.055114746 1.359314 -0.73986816q0.68530273 -0.6847534 0.91748047 -1.5131836q0.2211914 -0.8395386 -0.032836914 -1.6018066q-0.22094727 -0.5964966 -0.99432373 -1.3699341l-0.4309082 -0.4309082zm-6.8067627 -1.8790894l-0.9609375 -2.706604l1.5473633 -1.5462646l0.38616943 3.2809448l-0.9725952 0.9719238zm14.708923 -1.1577759l1.2154541 0.88391113q-0.39794922 0.59643555 -0.7958374 0.9940796q-0.64105225 0.64056396 -1.1936035 0.795105q-0.56359863 0.14355469 -1.02771 -0.033325195q-0.47509766 -0.18786621 -1.546814 -1.2595825l-3.9995728 -3.9995728l-0.87316895 0.8725586l-0.9281006 -0.9281006l0.87316895 -0.87249756l-1.7235718 -1.7235718l0.46447754 -1.8778687l2.430664 2.430725l1.1936646 -1.19281l0.9281006 0.92803955l-1.1936646 1.19281l4.065857 4.065857q0.50823975 0.50823975 0.7070923 0.5966797q0.20996094 0.07733154 0.4420166 0.022155762q0.2321167 -0.05517578 0.4973755 -0.32025146q0.18786621 -0.18774414 0.46417236 -0.5743408zm-6.1124268 -8.294128l-1.3479004 -1.3479004l1.1826172 -1.1817627l1.3479004 1.3479004l-1.1826172 1.1817627zm8.264343 8.264343l-6.9716187 -6.9716187l1.1826172 -1.1818237l6.9716187 6.9716797l-1.1826172 1.1817627zm4.922241 -10.021362l1.3151855 -1.0049438q1.0053711 1.3809814 0.90563965 2.8501587q-0.11077881 1.4581299 -1.2602539 2.6067505q-1.4257202 1.4247437 -3.2269897 1.3692017q-1.8012085 -0.07763672 -3.546875 -1.8233032q-1.1269531 -1.1269531 -1.6019287 -2.3311157q-0.47491455 -1.2262573 -0.13214111 -2.4082031q0.34277344 -1.2039795 1.2380371 -2.0986328q1.1383667 -1.1375732 2.4313354 -1.2809448q1.2929077 -0.14337158 2.5635986 0.7074585l-0.9727173 1.3253784q-0.87286377 -0.5414429 -1.6464233 -0.47528076q-0.7735596 0.06616211 -1.359314 0.65148926q-0.8952637 0.8946533 -0.81811523 2.0986938q0.0881958 1.1930542 1.4692383 2.5741577q1.4031982 1.4031372 2.5855713 1.5027466q1.1713257 0.08862305 2.0334473 -0.7728882q0.69628906 -0.6958008 0.7406616 -1.5795288q0.033325195 -0.8947754 -0.71795654 -1.9111938zm0.67456055 -2.529541q-1.9335327 -1.9334717 -1.7894897 -3.954956q0.12182617 -1.6680298 1.414978 -2.960205q1.4368286 -1.435852 3.293335 -1.3912964q1.8564453 0.022399902 3.513733 1.6796875q1.3479004 1.3479614 1.7124023 2.5299683q0.36444092 1.1599731 0.02166748 2.3639526q-0.34277344 1.1819458 -1.2601318 2.0986328q-1.4589233 1.4578857 -3.3043823 1.4244385q-1.845398 -0.033447266 -3.6021118 -1.7902222zm1.2157593 -1.2149048q1.336853 1.3369141 2.5855713 1.4144287q1.2486572 0.07757568 2.1328735 -0.80596924q0.8842163 -0.88360596 0.7960205 -2.1208496q-0.0881958 -1.2592773 -1.4581909 -2.6293335q-1.2926636 -1.2926636 -2.5413818 -1.3702393q-1.2487183 -0.07751465 -2.1218262 0.7949829q-0.8842163 0.88360596 -0.8070679 2.131836q0.0770874 1.248291 1.4140015 2.585144z" fill-rule="nonzero"></path><path fill="#000000" d="m718.8877 608.184l-6.9716187 -6.9716187l1.0610352 -1.0603027l0.9833374 0.9833374q-0.18774414 -0.82855225 0.04449463 -1.6790771q0.23223877 -0.8726196 0.92852783 -1.5684204q0.77368164 -0.7731323 1.5914307 -0.94976807q0.81781006 -0.1765747 1.6022949 0.21020508q-0.39746094 -2.0547485 0.928833 -3.380066q1.0389404 -1.038208 2.1660767 -1.0159302q1.1382446 0.011230469 2.331482 1.2044678l4.7839966 4.7840576l-1.1826172 1.1817627l-4.3862305 -4.3862915q-0.7071533 -0.7070923 -1.1270142 -0.90600586q-0.4309082 -0.20996094 -0.92822266 -0.08856201q-0.4862671 0.1104126 -0.89520264 0.51904297q-0.72943115 0.7289429 -0.72961426 1.7010498q-1.8310547E-4 0.97210693 1.0825806 2.0548706l4.043762 4.043762l-1.1826172 1.1817627l-4.529907 -4.529907q-0.7844238 -0.7844238 -1.4584961 -0.88397217q-0.6851196 -0.1105957 -1.3482666 0.552063q-0.4973755 0.49700928 -0.66326904 1.1929321q-0.16589355 0.6738281 0.15447998 1.369812q0.3203125 0.6959839 1.2705078 1.6461792l3.612854 3.612854l-1.1826172 1.1817627zm13.52478 -17.999207l1.3704834 -1.0601807q0.7732544 1.3477783 0.58514404 2.7285767q-0.18811035 1.3587036 -1.4038696 2.5736084q-1.5252075 1.5241699 -3.3596191 1.4796143q-1.8343506 -0.04449463 -3.5358276 -1.7459717q-1.7567139 -1.7567139 -1.8337402 -3.6235962q-0.065979004 -1.8779297 1.381897 -3.324768q1.4036865 -1.4026489 3.238037 -1.3360596q1.8343506 0.066589355 3.5689697 1.8012085q0.099487305 0.09942627 0.29833984 0.32043457l-5.194702 5.190918q1.2153931 1.0828247 2.4088135 1.1051025q1.1934814 0.022338867 2.0666504 -0.8502197q0.6409912 -0.64056396 0.7626953 -1.4248657q0.1217041 -0.8063965 -0.35327148 -1.8338013zm-5.7908325 1.965271l3.890503 -3.8876953q-0.9501953 -0.7955322 -1.756897 -0.87298584q-1.2486572 -0.12176514 -2.1549683 0.78393555q-0.80682373 0.8062134 -0.81811523 1.921936q-0.011230469 1.0936279 0.83947754 2.0548096zm-2.584961 -4.772583l-0.9609375 -2.706604l1.5473633 -1.5462036l0.38616943 3.2808838l-0.9725952 0.9719238zm17.703796 -2.0299072l-0.8838501 -0.8838501q0.3753662 1.7012329 -0.90667725 2.9823608q-0.8289795 0.82836914 -1.9893188 1.0822144q-1.1603394 0.23181152 -2.364746 -0.19921875q-1.2044678 -0.453125 -2.276184 -1.5248413q-1.0385132 -1.0385742 -1.5466309 -2.2316895q-0.4970703 -1.2041626 -0.26483154 -2.341919q0.24334717 -1.1488037 1.1054077 -2.010315q0.6300049 -0.6295166 1.3814697 -0.8503418q0.76257324 -0.23181152 1.5029297 -0.11016846l-3.4471436 -3.4471436l1.1715698 -1.1707153l9.612244 9.612244l-1.0942383 1.0933838zm-7.2160034 0.25280762q1.336853 1.336853 2.5634155 1.4364624q1.2376709 0.08862305 2.0003052 -0.6734619q0.77368164 -0.7731323 0.68548584 -1.9440918q-0.0881958 -1.1708984 -1.3919678 -2.4746704q-1.4252319 -1.4252319 -2.640747 -1.5359497q-1.2266235 -0.1217041 -2.0334473 0.6845703q-0.784729 0.78411865 -0.6744385 1.9550781q0.11029053 1.1709595 1.491394 2.552063zm1.7816772 -11.345032l-1.3479614 -1.3479004l1.1826172 -1.1818237l1.3479614 1.3479614l-1.1826172 1.1817627zm8.264282 8.264282l-6.9716187 -6.9716187l1.1826172 -1.1817627l6.9716187 6.9716187l-1.1826172 1.1817627zm-1.0015869 -5.9572144q-1.9334717 -1.9335327 -1.7894287 -3.955017q0.12182617 -1.6679688 1.414978 -2.960205q1.4368286 -1.435791 3.293274 -1.3912964q1.8565063 0.022460938 3.513794 1.6797485q1.3479004 1.3479004 1.7124023 2.5299683q0.36444092 1.1599121 0.02166748 2.3639526q-0.34277344 1.1818848 -1.2601318 2.0986328q-1.4589233 1.4578857 -3.3043823 1.4243774q-1.845459 -0.033447266 -3.6021729 -1.7901611zm1.2158203 -1.2149048q1.336853 1.336853 2.5855713 1.4144287q1.2486572 0.07751465 2.1328735 -0.8060303q0.8842163 -0.8835449 0.7960205 -2.1207886q-0.0881958 -1.2593384 -1.4581909 -2.6293335q-1.2926636 -1.2927246 -2.5413818 -1.3702393q-1.2487183 -0.07757568 -2.1218262 0.7949829q-0.8842163 0.8835449 -0.8070679 2.131836q0.0770874 1.248291 1.4140015 2.585144z" fill-rule="nonzero"></path><path fill="#000000" fill-opacity="0.0" d="m707.57135 562.7053l-36.503967 -70.64563" fill-rule="evenodd"></path><path stroke="#000000" stroke-width="1.0" stroke-linejoin="round" stroke-linecap="butt" d="m707.57135 562.7053l-33.749634 -65.315216" fill-rule="evenodd"></path><path fill="#000000" stroke="#000000" stroke-width="1.0" stroke-linecap="butt" d="m675.2891 496.63187l-3.5506592 -3.2734375l0.6158447 4.789917z" fill-rule="evenodd"></path><path fill="#000000" fill-opacity="0.0" d="m707.57135 562.7053l-13.196838 -100.944855" fill-rule="evenodd"></path><path stroke="#000000" stroke-width="1.0" stroke-linejoin="round" stroke-linecap="butt" d="m707.57135 562.7053l-12.419067 -94.99548" fill-rule="evenodd"></path><path fill="#000000" stroke="#000000" stroke-width="1.0" stroke-linecap="butt" d="m696.7901 467.49573l-2.2260742 -4.2857056l-1.0495605 4.713928z" fill-rule="evenodd"></path><path fill="#000000" fill-opacity="0.0" d="m707.57135 562.7053l-73.79529 -43.84247" fill-rule="evenodd"></path><path stroke="#000000" stroke-width="1.0" stroke-linejoin="round" stroke-linecap="butt" d="m707.57135 562.7053l-68.637024 -40.777893" fill-rule="evenodd"></path><path fill="#000000" stroke="#000000" stroke-width="1.0" stroke-linecap="butt" d="m639.778 520.5074l-4.745178 -0.8978882l3.0578613 3.737976z" fill-rule="evenodd"></path><path fill="#000000" fill-opacity="0.0" d="m707.57135 562.7053l-49.322876 -57.82675" fill-rule="evenodd"></path><path stroke="#000000" stroke-width="1.0" stroke-linejoin="round" stroke-linecap="butt" d="m707.57135 562.7053l-45.42914 -53.26175" fill-rule="evenodd"></path><path fill="#000000" stroke="#000000" stroke-width="1.0" stroke-linecap="butt" d="m663.39886 508.37167l-4.20166 -2.3808289l1.6882935 4.524597z" fill-rule="evenodd"></path><path fill="#000000" fill-opacity="0.0" d="m707.57135 562.7053l-24.850403 -89.29132" fill-rule="evenodd"></path><path stroke="#000000" stroke-width="1.0" stroke-linejoin="round" stroke-linecap="butt" d="m707.57135 562.7053l-23.2417 -83.51102" fill-rule="evenodd"></path><path fill="#000000" stroke="#000000" stroke-width="1.0" stroke-linecap="butt" d="m685.9209 478.75146l-2.8079834 -3.9290771l-0.37457275 4.814789z" fill-rule="evenodd"></path><path fill="#000000" fill-opacity="0.0" d="m707.57135 562.7053l-78.42523 -70.64563" fill-rule="evenodd"></path><path stroke="#000000" stroke-width="1.0" stroke-linejoin="round" stroke-linecap="butt" d="m707.57135 562.7053l-73.967224 -66.62991" fill-rule="evenodd"></path><path fill="#000000" stroke="#000000" stroke-width="1.0" stroke-linecap="butt" d="m634.7096 494.8482l-4.477295 -1.8100891l2.2662964 4.264557z" fill-rule="evenodd"></path><path fill="#000000" fill-opacity="0.0" d="m707.57135 562.7053l-74.96063 -109.102325" fill-rule="evenodd"></path><path stroke="#000000" stroke-width="1.0" stroke-linejoin="round" stroke-linecap="butt" d="m707.57135 562.7053l-71.56293 -104.157104" fill-rule="evenodd"></path><path fill="#000000" stroke="#000000" stroke-width="1.0" stroke-linecap="butt" d="m637.36975 457.61288l-3.9312134 -2.8049927l1.2084961 4.6756897z" fill-rule="evenodd"></path><path fill="#000000" fill-opacity="0.0" d="m707.57135 562.7053l-48.15747 -127.74802" fill-rule="evenodd"></path><path stroke="#000000" stroke-width="1.0" stroke-linejoin="round" stroke-linecap="butt" d="m707.57135 562.7053l-46.041077 -122.13367" fill-rule="evenodd"></path><path fill="#000000" stroke="#000000" stroke-width="1.0" stroke-linecap="butt" d="m663.07587 439.989l-3.1463623 -3.6637878l0.055236816 4.8290405z" fill-rule="evenodd"></path><path fill="#000000" fill-opacity="0.0" d="m707.57135 562.7053l-108.72443 -40.346436" fill-rule="evenodd"></path><path stroke="#000000" stroke-width="1.0" stroke-linejoin="round" stroke-linecap="butt" d="m707.57135 562.7053l-103.099304 -38.259033" fill-rule="evenodd"></path><path fill="#000000" stroke="#000000" stroke-width="1.0" stroke-linecap="butt" d="m605.04675 522.89777l-4.8292847 -0.030273438l3.6799927 3.1273804z" fill-rule="evenodd"></path><path fill="#000000" fill-opacity="0.0" d="m707.57135 562.7053l-5.0393677 -140.5669" fill-rule="evenodd"></path><path stroke="#000000" stroke-width="1.0" stroke-linejoin="round" stroke-linecap="butt" d="m707.57135 562.7053l-4.824402 -134.57077" fill-rule="evenodd"></path><path fill="#000000" stroke="#000000" stroke-width="1.0" stroke-linecap="butt" d="m704.39764 428.07538l-1.8132935 -4.476013l-1.4880981 4.5943604z" fill-rule="evenodd"></path><path fill="#000000" fill-opacity="0.0" d="m707.57135 562.7053l-93.57483 -69.480286" fill-rule="evenodd"></path><path stroke="#000000" stroke-width="1.0" stroke-linejoin="round" stroke-linecap="butt" d="m707.57135 562.7053l-88.75757 -65.90344" fill-rule="evenodd"></path><path fill="#000000" stroke="#000000" stroke-width="1.0" stroke-linecap="butt" d="m619.79846 495.47577l-4.628235 -1.379242l2.6588745 4.031494z" fill-rule="evenodd"></path><path fill="#000000" fill-opacity="0.0" d="m1361.9448 387.19946l111.84253 111.84253" fill-rule="evenodd"></path><path stroke="#000000" stroke-width="1.0" stroke-linejoin="round" stroke-linecap="butt" d="m1361.9448 387.19946l107.599976 107.599884" fill-rule="evenodd"></path><path fill="#000000" stroke="#000000" stroke-width="1.0" stroke-linecap="butt" d="m1468.3768 495.96732l4.376831 2.0409546l-2.0408936 -4.3768616z" fill-rule="evenodd"></path></g></svg>

